<svg fill="none" height="485" viewBox="0 0 1444 485" width="1444" xmlns="http://www.w3.org/2000/svg"><g stroke="#353f52"><path d="m802 1.99999 80 80.00001 80-80z" stroke-linecap="round" stroke-linejoin="round" stroke-width="3"/><path d="m1122 162 80-80-80-80z" stroke-linecap="round" stroke-linejoin="round" stroke-width="3"/><path d="m1202 162 80-80-80-80z" stroke-linecap="round" stroke-linejoin="round" stroke-width="3"/><path d="m962 82 80 80 80-80z" stroke-linecap="round" stroke-linejoin="round" stroke-width="3"/><path d="m1442 322.641-80-80-80 80z" stroke-linecap="round" stroke-linejoin="round" stroke-width="3"/></g><path d="m962 242h1.5c0 .828-.672 1.5-1.5 1.5zm0-160v-1.5c.828 0 1.5.6716 1.5 1.5zm-160 160v1.5c-.828 0-1.5-.672-1.5-1.5zm0-160h-1.5c0-.3978.158-.7793.439-1.0607.282-.2813.663-.4393 1.061-.4393zm126.667 126.667h1.5c0 .397-.158.779-.44 1.06-.281.282-.663.44-1.06.44zm0-93.334v-1.5c.397 0 .779.158 1.06.44.282.281.44.662.44 1.06zm-93.334 93.334v1.5c-.828 0-1.5-.672-1.5-1.5zm0-93.334h-1.5c0-.828.672-1.5 1.5-1.5zm125.167 126.667v-160h3v160zm-158.5-1.5h160v3h-160zm1.5-158.5v160h-3v-160zm158.5 1.5h-160v-3h160zm-34.833 125.167v-93.334h3v93.334zm-91.834-1.5h93.334v3h-93.334zm1.5-91.834v93.334h-3v-93.334zm91.834 1.5h-93.334v-3h93.334z" fill="#353f52"/><path d="m1442 482.641h1.5c0 .828-.67 1.5-1.5 1.5zm0-160v-1.5c.83 0 1.5.671 1.5 1.5zm-160 160v1.5c-.83 0-1.5-.672-1.5-1.5zm0-160h-1.5c0-.398.16-.78.44-1.061s.66-.439 1.06-.439zm126.67 126.666h1.5c0 .398-.16.78-.44 1.061s-.67.439-1.06.439zm0-93.333v-1.5c.39 0 .78.158 1.06.439.28.282.44.663.44 1.061zm-93.34 93.333v1.5c-.83 0-1.5-.671-1.5-1.5zm0-93.333h-1.5c0-.828.67-1.5 1.5-1.5zm125.17 126.667v-160h3v160zm-158.5-1.5h160v3h-160zm1.5-158.5v160h-3v-160zm158.5 1.5h-160v-3h160zm-34.83 125.166v-93.333h3v93.333zm-91.84-1.5h93.34v3h-93.34zm1.5-91.833v93.333h-3v-93.333zm91.84 1.5h-93.34v-3h93.34z" fill="#353f52"/><g stroke-linecap="round" stroke-linejoin="round" stroke-width="3"><g stroke="#353f52"><path d="m962 322c0-44.183-35.817-80-80-80s-80 35.817-80 80z"/><path d="m802 482.641c0-44.183-35.817-80-80-80s-80 35.817-80 80z"/><path d="m1122 482.641c0-44.183-35.82-80-80-80-44.183 0-80 35.817-80 80z"/><path d="m1442 242.641c0-44.183-35.82-80-80-80s-80 35.817-80 80z"/><path d="m1122 82c0-44.1828-35.82-79.99999-80-80-44.183 0-80 35.8172-80 80z"/><path d="m882 482 80-80-80-80-80 80z"/><path d="m1202 482.641 80-80-80-80-80 80z"/><circle r="80" transform="matrix(1 0 0 -1 1202 242.641)"/><path d="m162 322 80-80-80-80z"/><path d="m242 322 80-80-80-80z"/><path d="m2 1.99999 80 80.00001 80-80z"/><path d="m642 242.641-80 80-80-80z"/><path clip-rule="evenodd" d="m322 322v160h-160v-160zm-33.333 33.333v93.334h-93.334v-93.334z" fill-rule="evenodd"/><path clip-rule="evenodd" d="m642 322.641v160h-160v-160zm-33.333 33.333v93.333h-93.334v-93.333z" fill-rule="evenodd"/><path d="m162 482c0-44.183-35.817-80-80-80-44.1828 0-80 35.817-80 80z"/><path d="m482 322.641c0-44.183-35.817-80-80-80s-80 35.817-80 80z"/><path d="m322 2c0 44.1828 35.817 80 80 80s80-35.8172 80-80c-82 0-110 0-160 0z"/><path d="m82 242 80-80-80-80-80 80z"/><path d="m402 482.641 80-80-80-80-80 80z"/><path d="m562 162 80-80-80-80-80 80z"/><circle r="80" transform="matrix(1 0 0 -1 82 322)"/><circle r="80" transform="matrix(-.00000004 1 1 .00000004 722 322.641)"/><path d="m802 82.0006v240.6404"/><path d="m642 82.0006v240.6404"/><path d="m402 242.64v-160.0004m56.568 136.5684-113.137-113.137m-23.431 56.569h160m-136.568 56.568 113.137-113.137"/><path d="m1042 402v-160m56.57 136.569-113.139-113.137m-23.431 56.568h160m-136.568 56.569 113.138-113.137"/></g><path d="m1122 242-80-80-80 80z" stroke="#144699"/><path d="m1362 162 80-80-80-80-80 80z" stroke="#144699"/><path d="m482 162.641 80 80 80-80z" stroke="#144699"/><path clip-rule="evenodd" d="m322 2v160h-160v-160zm-33.333 33.3333v93.3337h-93.334v-93.3337z" fill-rule="evenodd" stroke="#144699"/><circle r="80" stroke="#144699" transform="matrix(-.00000004 1 1 .00000004 722 82)"/></g></svg>