<svg width="40" height="40" viewBox="0 0 40 40" fill="none" xmlns="http://www.w3.org/2000/svg">
<g id="ic_android">
<path id="Vector" d="M10.5508 28.9722C10.5508 29.8863 11.2969 30.6324 12.2148 30.6324H14.1172V35.3355C14.1172 36.5269 15.0742 37.4996 16.25 37.4996C17.4297 37.4996 18.3828 36.5308 18.3828 35.3355V30.6285H21.7031V35.3316C21.7031 36.523 22.6601 37.4957 23.8359 37.4957C25.0156 37.4957 25.9687 36.5269 25.9687 35.3316V30.6285H27.8711C28.789 30.6285 29.5351 29.8824 29.5351 28.9683V13.5308H10.5508V28.9722ZM24.5 5.53085L26.2539 2.99179C26.3554 2.84335 26.332 2.64414 26.1953 2.54648C26.0586 2.45273 25.8633 2.4996 25.7617 2.64804L23.9414 5.28867C22.7422 4.81601 21.4062 4.55429 20.0039 4.55429C18.6015 4.55429 17.2656 4.81601 16.0664 5.28867L14.2461 2.65195C14.1445 2.50351 13.9492 2.45273 13.8125 2.55039C13.6758 2.64414 13.6523 2.83945 13.7539 2.9957L15.5078 5.53476C12.7187 6.83163 10.7656 9.28866 10.5156 12.1598H29.5C29.2422 9.28476 27.2851 6.82773 24.5 5.53085ZM15.9961 9.53476C15.7883 9.53476 15.5851 9.47313 15.4123 9.35767C15.2395 9.24221 15.1048 9.0781 15.0253 8.88609C14.9458 8.69409 14.9249 8.48281 14.9655 8.27898C15.006 8.07515 15.1061 7.88792 15.2531 7.74096C15.4 7.59401 15.5873 7.49393 15.7911 7.45339C15.9949 7.41284 16.2062 7.43365 16.3982 7.51318C16.5902 7.59271 16.7543 7.72739 16.8698 7.90019C16.9852 8.07299 17.0469 8.27615 17.0469 8.48398C17.0461 8.76244 16.9352 9.02929 16.7383 9.22619C16.5414 9.4231 16.2745 9.53403 15.9961 9.53476ZM24.1367 9.53476C23.9289 9.53476 23.7257 9.47313 23.5529 9.35767C23.3801 9.24221 23.2454 9.0781 23.1659 8.88609C23.0864 8.69409 23.0656 8.48281 23.1061 8.27898C23.1467 8.07515 23.2467 7.88792 23.3937 7.74096C23.5406 7.59401 23.7279 7.49393 23.9317 7.45339C24.1355 7.41284 24.3468 7.43365 24.5388 7.51318C24.7308 7.59271 24.8949 7.72739 25.0104 7.90019C25.1259 8.07299 25.1875 8.27615 25.1875 8.48398C25.1868 8.76244 25.0758 9.02929 24.8789 9.22619C24.682 9.4231 24.4152 9.53403 24.1367 9.53476ZM32.8633 13.4683C31.6836 13.4683 30.7304 14.4371 30.7304 15.6324V24.0855C30.7304 25.2769 31.6875 26.2496 32.8633 26.2496C34.0429 26.2496 34.9961 25.2808 34.9961 24.0855V15.6285C35 14.4332 34.0468 13.4683 32.8633 13.4683ZM7.13672 13.4683C5.95703 13.4683 5.00391 14.4371 5.00391 15.6324V24.0855C5.00391 25.2769 5.96094 26.2496 7.13672 26.2496C8.3164 26.2496 9.26953 25.2808 9.26953 24.0855V15.6285C9.26953 14.4332 8.3125 13.4683 7.13672 13.4683Z" fill="white"/>
</g>
</svg>
