<svg width="40" height="40" viewBox="0 0 40 40" fill="none" xmlns="http://www.w3.org/2000/svg">
<g id="ic_aws" clip-path="url(#clip0_4501_12764)">
<path id="Vector" d="M20.4143 11.1423C19.3209 15.6323 19.3909 15.3923 18.3993 19.499C18.3937 19.6002 18.3668 19.699 18.3202 19.789C18.2737 19.8791 18.2086 19.9582 18.1292 20.0212C18.0498 20.0842 17.958 20.1296 17.8597 20.1545C17.7615 20.1794 17.6591 20.1832 17.5593 20.1656H17.5643H16.4393C16.3512 20.1805 16.2611 20.1776 16.1742 20.157C16.0873 20.1363 16.0054 20.0985 15.9335 20.0456C15.8615 19.9928 15.8009 19.926 15.7552 19.8493C15.7095 19.7725 15.6797 19.6874 15.6676 19.599V19.5956C14.7059 16.519 13.4176 12.2456 12.5509 9.38729C12.2309 8.33229 12.4409 8.35729 13.2776 8.37895C13.5676 8.38729 13.8476 8.37895 14.1359 8.37895C14.3026 8.3617 14.4694 8.40944 14.6017 8.51222C14.734 8.61501 14.8215 8.76489 14.8459 8.93062V8.93395C15.1276 9.94229 15.3143 10.7156 16.9226 17.0673C16.9526 17.1923 16.9926 17.3106 17.0326 17.4256H17.1176C17.1559 17.269 17.2026 17.1223 17.2426 16.964C17.8515 14.394 18.4582 11.8217 19.0626 9.24729C19.2509 8.44729 19.5859 8.37229 20.3959 8.37229H20.9893C21.5226 8.38062 21.6926 8.48895 21.8259 9.02062C22.2943 10.849 23.6626 16.9706 23.9109 17.644C24.3109 16.214 23.7709 18.2606 26.1376 9.13062C26.3009 8.49895 26.4576 8.37395 27.0993 8.37395H28.0843C28.5059 8.38229 28.6309 8.51395 28.5293 8.92895C28.3409 9.67229 28.3026 9.70229 25.3043 19.309C25.0609 20.0823 24.9759 20.1523 24.1643 20.1523H23.3359C22.7659 20.1523 22.6176 20.0506 22.4776 19.4956C22.1409 18.2306 20.6576 12.0206 20.4143 11.1456V11.1423ZM9.8076 19.8273C9.8551 19.9258 9.92553 20.0116 10.013 20.0773C10.1004 20.1431 10.2023 20.1869 10.3102 20.2052C10.4181 20.2235 10.5288 20.2157 10.633 20.1824C10.7372 20.1491 10.8319 20.0914 10.9093 20.014L11.4009 19.6856C11.9343 19.334 11.9709 19.194 11.6826 18.6306C11.3567 18.0037 11.1874 17.3072 11.1893 16.6006V16.5256V16.529C11.1893 16.2856 11.2359 12.179 11.1193 11.3123C11.0706 10.6181 10.8091 9.95585 10.3704 9.41572C9.93164 8.87559 9.33704 8.48387 8.6676 8.29395L8.64426 8.28895C7.80233 8.06044 6.92673 7.98202 6.0576 8.05729L6.08426 8.05562C4.90469 8.09966 3.75058 8.41141 2.70926 8.96729L2.75093 8.94729C2.60025 9.02793 2.48629 9.16337 2.4326 9.32562L2.43093 9.33062C2.36295 9.64527 2.34439 9.96859 2.37593 10.289L2.37426 10.2756C2.42093 10.7373 2.5776 10.8223 3.01426 10.6756C3.41426 10.5423 3.79593 10.3723 4.19426 10.254C5.31448 9.85256 6.5318 9.80946 7.6776 10.1306L7.6376 10.1206C8.16593 10.279 8.5776 10.6773 8.75093 11.1856L8.75426 11.1973C8.93521 11.8139 8.99743 12.4592 8.9376 13.099L8.93926 13.079C8.93926 13.509 8.93093 13.509 8.50926 13.4306C7.4264 13.167 6.30715 13.0859 5.1976 13.1906L5.2376 13.1873C4.66109 13.2285 4.09922 13.3878 3.58686 13.6553C3.07451 13.9228 2.62263 14.2928 2.25926 14.7423L2.2526 14.7506C1.81926 15.3506 1.55926 16.1023 1.55926 16.914C1.55926 17.2423 1.60093 17.559 1.68093 17.8623L1.67593 17.8356C1.75814 18.383 1.99345 18.8959 2.35471 19.3153C2.71597 19.7346 3.18844 20.0433 3.7176 20.2056L3.7376 20.2106C4.49306 20.4737 5.30247 20.5428 6.09161 20.4118C6.88075 20.2808 7.62436 19.9537 8.25426 19.4606L8.24426 19.469C8.54093 19.2506 8.8076 18.9856 9.11093 18.7256C9.35426 19.1156 9.56426 19.4823 9.80593 19.819L9.8076 19.8273ZM8.6076 15.0156H8.61593C8.66575 15.0156 8.71496 15.0266 8.75997 15.048C8.80498 15.0694 8.84465 15.1005 8.87611 15.1391C8.90756 15.1778 8.93 15.2229 8.94179 15.2713C8.95358 15.3198 8.95443 15.3702 8.94426 15.419V15.4173C8.9276 15.714 8.9526 16.0106 8.92093 16.3073C8.8376 17.179 8.2926 17.9056 7.5376 18.2473L7.5226 18.254C6.89109 18.5822 6.17713 18.7178 5.46926 18.644L5.48426 18.6456C5.23934 18.6316 5.0005 18.5639 4.78469 18.4473C4.56888 18.3306 4.38139 18.1679 4.23553 17.9706C4.08966 17.7734 3.989 17.5465 3.94068 17.3059C3.89236 17.0654 3.89756 16.8172 3.95593 16.579L3.95426 16.5906C3.9976 15.6773 4.72093 14.9456 5.6276 14.889H5.6326C6.64532 14.7344 7.67864 14.7826 8.6726 15.0306L8.61926 15.019L8.6076 15.0156ZM35.8509 20.1006C36.6458 19.8383 37.3168 19.2935 37.7367 18.5695C38.1566 17.8454 38.2963 16.9925 38.1293 16.1723L38.1326 16.194C38.0481 15.6697 37.822 15.1784 37.4786 14.7734C37.1352 14.3683 36.6876 14.0648 36.1843 13.8956L36.1643 13.889C34.8097 13.4709 33.4832 12.9671 32.1926 12.3806L32.4076 12.469C32.2331 12.3826 32.0855 12.2501 31.9809 12.0859C31.8764 11.9217 31.8187 11.7319 31.8143 11.5373V11.5356C31.7869 11.3551 31.7965 11.1709 31.8423 10.9942C31.8882 10.8174 31.9695 10.6518 32.0812 10.5074C32.1929 10.363 32.3327 10.2427 32.4922 10.1539C32.6518 10.0651 32.8277 10.0095 33.0093 9.99062H33.0143C33.7472 9.82745 34.5062 9.81893 35.2426 9.96562L35.2093 9.96062C35.7793 10.0706 36.3259 10.289 36.8809 10.4523C37.0993 10.5223 37.3426 10.6156 37.4909 10.3273C37.6319 10.0258 37.6521 9.68185 37.5473 9.36598C37.4426 9.05011 37.2208 8.78637 36.9276 8.62895L36.9209 8.62562C36.042 8.21259 35.0821 8.00024 34.1109 8.00395C33.2009 8.00395 32.3343 8.18729 31.5443 8.51729L31.5876 8.50062C30.9995 8.73064 30.492 9.1287 30.1286 9.64516C29.7652 10.1616 29.5618 10.7736 29.5438 11.4049C29.5259 12.0362 29.6942 12.6588 30.0277 13.195C30.3612 13.7313 30.8451 14.1576 31.4193 14.4206L31.4393 14.429C32.0409 14.719 32.6959 14.8906 33.3293 15.124C33.9626 15.3573 34.5943 15.5773 35.2126 15.834C35.4187 15.9476 35.5921 16.1123 35.716 16.3124C35.84 16.5125 35.9103 16.7411 35.9201 16.9763C35.93 17.2114 35.8792 17.4452 35.7724 17.6549C35.6657 17.8647 35.5068 18.0435 35.3109 18.174L35.3059 18.1773C33.1426 19.3773 30.2393 17.989 29.9009 17.8806C29.6443 17.7956 29.4876 17.8973 29.4093 18.1706C29.3362 18.3449 29.3018 18.5329 29.3086 18.7218C29.3155 18.9106 29.3632 19.0957 29.4487 19.2642C29.5341 19.4327 29.6552 19.5807 29.8035 19.6978C29.9518 19.8148 30.1238 19.8983 30.3076 19.9423L30.3159 19.944C31.266 20.3176 32.2783 20.5077 33.2993 20.504C34.2093 20.504 35.0859 20.3556 35.9043 20.0823L35.8459 20.099L35.8509 20.1006ZM23.1276 32.809C27.1119 32.3958 30.9583 31.1196 34.3993 29.069L34.2726 29.139C34.8976 28.7723 35.4826 28.339 36.0759 27.9123C36.6459 27.5123 36.3259 26.4756 35.1926 26.959C31.2859 28.674 26.7493 29.7706 21.9843 29.994L21.8993 29.9973C19.4518 30.1086 16.9993 29.9774 14.5776 29.6056L14.7826 29.6323C9.5876 28.884 4.90926 27.2023 0.734263 24.754L0.91593 24.8523C0.763506 24.7506 0.596632 24.6725 0.42093 24.6206L0.407597 24.6173C0.0242634 24.5323 -0.19407 24.984 0.219263 25.374C5.53188 30.2906 12.5073 33.0163 19.7459 33.004H19.7693H19.7676C20.8926 32.9406 22.0176 32.934 23.1259 32.809H23.1276ZM36.7726 25.609C37.9293 25.6723 38.2876 26.0706 37.9993 27.1856C37.7026 28.3423 37.2726 29.4673 36.9143 30.6073C36.8443 30.834 36.5859 31.099 36.8509 31.2956C37.1409 31.499 37.3593 31.2173 37.5543 31.039C38.3176 30.3134 38.9117 29.4285 39.2943 28.4473L39.3109 28.399C39.7631 27.3935 39.995 26.303 39.9909 25.2006V25.1223V25.1256C39.9743 24.6423 39.8509 24.4373 39.3809 24.3056C38.9696 24.1818 38.5469 24.0992 38.1193 24.059L38.0926 24.0573C36.4135 23.8579 34.7127 24.1533 33.1993 24.9073L33.2493 24.884C33.0048 25.0153 32.7747 25.1717 32.5626 25.3506L32.5693 25.3456C32.4843 25.4156 32.3193 25.759 32.7576 25.8223C32.9152 25.834 33.0737 25.8256 33.2293 25.7973L33.2176 25.799C34.4051 25.6352 35.6045 25.5727 36.8026 25.6123H36.7709L36.7726 25.609Z" fill="white"/>
</g>
<defs>
<clipPath id="clip0_4501_12764">
<rect width="40" height="40" fill="white"/>
</clipPath>
</defs>
</svg>
