<svg width="48" height="48" viewBox="0 0 48 48" fill="none" xmlns="http://www.w3.org/2000/svg">
<circle cx="24" cy="24" r="24" transform="rotate(-180 24 24)" fill="#2C74D6"/>
<path d="M20.985 18.7614C20.8773 18.8896 20.8209 19.0281 20.8158 19.1768C20.8106 19.3255 20.8671 19.4589 20.985 19.5768L25.4235 24.0153L20.9696 28.4787C20.8619 28.58 20.8106 28.7143 20.8158 28.8816C20.8209 29.0489 20.8773 29.1864 20.985 29.2941C21.1132 29.4223 21.2491 29.4838 21.3927 29.4787C21.5363 29.4736 21.667 29.412 21.785 29.2941L26.5484 24.521C26.6253 24.4441 26.6821 24.3656 26.7186 24.2855C26.7552 24.2053 26.7734 24.1153 26.7734 24.0153C26.7734 23.9217 26.7552 23.8332 26.7186 23.7499C26.6821 23.6665 26.6253 23.5864 26.5484 23.5095L21.8004 18.7614C21.6824 18.6435 21.5491 18.5887 21.4004 18.597C21.2517 18.6053 21.1132 18.6601 20.985 18.7614Z" fill="white" stroke="white"/>
</svg>
