<svg width="284" height="170" viewBox="0 0 284 170" fill="none" xmlns="http://www.w3.org/2000/svg">
<g clip-path="url(#clip0_4059_30951)">
<mask id="path-1-inside-1_4059_30951" fill="white">
<path fill-rule="evenodd" clip-rule="evenodd" d="M152 -61.3368C152 -65.5691 148.569 -69 144.337 -69H111.663C107.431 -69 104 -65.5691 104 -61.3368V-28.6632C104 -24.4309 107.431 -21 111.663 -21H139.337C143.569 -21 147 -17.5691 147 -13.3368V14.4425C147 18.6748 150.431 22.1057 154.663 22.1057H187.337C191.569 22.1057 195 18.6748 195 14.4425V-18.2314C195 -22.4636 191.569 -25.8945 187.337 -25.8945H159.663C155.431 -25.8945 152 -29.3254 152 -33.5577V-61.3368Z"/>
</mask>
<path d="M111.663 -68H144.337V-70H111.663V-68ZM105 -28.6632V-61.3368H103V-28.6632H105ZM139.337 -22H111.663V-20H139.337V-22ZM148 14.4425V-13.3368H146V14.4425H148ZM187.337 21.1057H154.663V23.1057H187.337V21.1057ZM194 -18.2314V14.4425H196V-18.2314H194ZM159.663 -24.8945H187.337V-26.8945H159.663V-24.8945ZM151 -61.3368V-33.5577H153V-61.3368H151ZM159.663 -26.8945C155.983 -26.8945 153 -29.8777 153 -33.5577H151C151 -28.7732 154.879 -24.8945 159.663 -24.8945V-26.8945ZM196 -18.2314C196 -23.0159 192.122 -26.8945 187.337 -26.8945V-24.8945C191.017 -24.8945 194 -21.9113 194 -18.2314H196ZM187.337 23.1057C192.122 23.1057 196 19.2271 196 14.4425H194C194 18.1225 191.017 21.1057 187.337 21.1057V23.1057ZM146 14.4425C146 19.227 149.879 23.1057 154.663 23.1057V21.1057C150.983 21.1057 148 18.1225 148 14.4425H146ZM139.337 -20C143.017 -20 146 -17.0168 146 -13.3368H148C148 -18.1214 144.121 -22 139.337 -22V-20ZM103 -28.6632C103 -23.8786 106.879 -20 111.663 -20V-22C107.983 -22 105 -24.9832 105 -28.6632H103ZM144.337 -68C148.017 -68 151 -65.0168 151 -61.3368H153C153 -66.1214 149.121 -70 144.337 -70V-68ZM111.663 -70C106.879 -70 103 -66.1214 103 -61.3368H105C105 -65.0168 107.983 -68 111.663 -68V-70Z" fill="#F1AFAB" mask="url(#path-1-inside-1_4059_30951)"/>
<mask id="path-3-inside-2_4059_30951" fill="white">
<path fill-rule="evenodd" clip-rule="evenodd" d="M277 69.6632C277 65.4309 273.569 62 269.337 62H236.663C232.431 62 229 65.4309 229 69.6632V102.337C229 106.569 232.431 110 236.663 110H264.337C268.569 110 272 113.431 272 117.663V145.443C272 149.675 275.431 153.106 279.663 153.106H312.337C316.569 153.106 320 149.675 320 145.443V112.769C320 108.536 316.569 105.105 312.337 105.105H284.663C280.431 105.105 277 101.675 277 97.4423V69.6632Z"/>
</mask>
<path d="M236.663 63H269.337V61H236.663V63ZM230 102.337V69.6632H228V102.337H230ZM264.337 109H236.663V111H264.337V109ZM273 145.443V117.663H271V145.443H273ZM312.337 152.106H279.663V154.106H312.337V152.106ZM319 112.769V145.443H321V112.769H319ZM284.663 106.105H312.337V104.105H284.663V106.105ZM276 69.6632V97.4423H278V69.6632H276ZM284.663 104.105C280.983 104.105 278 101.122 278 97.4423H276C276 102.227 279.879 106.105 284.663 106.105V104.105ZM321 112.769C321 107.984 317.122 104.105 312.337 104.105V106.105C316.017 106.105 319 109.089 319 112.769H321ZM312.337 154.106C317.122 154.106 321 150.227 321 145.443H319C319 149.122 316.017 152.106 312.337 152.106V154.106ZM271 145.443C271 150.227 274.879 154.106 279.663 154.106V152.106C275.983 152.106 273 149.122 273 145.443H271ZM264.337 111C268.017 111 271 113.983 271 117.663H273C273 112.879 269.121 109 264.337 109V111ZM228 102.337C228 107.121 231.879 111 236.663 111V109C232.983 109 230 106.017 230 102.337H228ZM269.337 63C273.017 63 276 65.9832 276 69.6632H278C278 64.8786 274.121 61 269.337 61V63ZM236.663 61C231.879 61 228 64.8786 228 69.6632H230C230 65.9832 232.983 63 236.663 63V61Z" fill="#F1AFAB" mask="url(#path-3-inside-2_4059_30951)"/>
<mask id="path-5-inside-3_4059_30951" fill="white">
<path fill-rule="evenodd" clip-rule="evenodd" d="M313 45.6632C313 41.4309 309.569 38 305.337 38H272.663C268.431 38 265 41.4309 265 45.6632V78.3368C265 82.5691 268.431 86 272.663 86H300.39C304.622 86 308.053 89.4309 308.053 93.6632V121.337C308.053 125.569 311.484 129 315.716 129H348.284C352.516 129 355.947 125.569 355.947 121.337V88.7686C355.947 84.5364 352.516 81.1055 348.284 81.1055H320.663C316.431 81.1055 313 77.6746 313 73.4423V45.6632Z"/>
</mask>
<path d="M272.663 39H305.337V37H272.663V39ZM266 78.3368V45.6632H264V78.3368H266ZM300.39 85H272.663V87H300.39V85ZM309.053 121.337V93.6632H307.053V121.337H309.053ZM348.284 128H315.716V130H348.284V128ZM354.947 88.7686V121.337H356.947V88.7686H354.947ZM320.663 82.1055H348.284V80.1055H320.663V82.1055ZM312 45.6632V73.4423H314V45.6632H312ZM320.663 80.1055C316.983 80.1055 314 77.1223 314 73.4423H312C312 78.2268 315.879 82.1055 320.663 82.1055V80.1055ZM356.947 88.7686C356.947 83.9841 353.069 80.1055 348.284 80.1055V82.1055C351.964 82.1055 354.947 85.0887 354.947 88.7686H356.947ZM348.284 130C353.069 130 356.947 126.121 356.947 121.337H354.947C354.947 125.017 351.964 128 348.284 128V130ZM307.053 121.337C307.053 126.121 310.931 130 315.716 130V128C312.036 128 309.053 125.017 309.053 121.337H307.053ZM300.39 87C304.07 87 307.053 89.9832 307.053 93.6632H309.053C309.053 88.8786 305.174 85 300.39 85V87ZM264 78.3368C264 83.1214 267.879 87 272.663 87V85C268.983 85 266 82.0168 266 78.3368H264ZM305.337 39C309.017 39 312 41.9832 312 45.6632H314C314 40.8786 310.121 37 305.337 37V39ZM272.663 37C267.879 37 264 40.8786 264 45.6632H266C266 41.9832 268.983 39 272.663 39V37Z" fill="#F1AFAB" mask="url(#path-5-inside-3_4059_30951)"/>
<mask id="path-7-inside-4_4059_30951" fill="white">
<path fill-rule="evenodd" clip-rule="evenodd" d="M231 -53.3368C231 -57.5691 227.569 -61 223.337 -61H190.663C186.431 -61 183 -57.5691 183 -53.3368V-20.6632C183 -16.4309 186.431 -13 190.663 -13H218.337C222.569 -13 226 -9.5691 226 -5.33685V22.4425C226 26.6748 229.431 30.1057 233.663 30.1057H266.337C270.569 30.1057 274 26.6748 274 22.4425V-10.2314C274 -14.4636 270.569 -17.8945 266.337 -17.8945H238.663C234.431 -17.8945 231 -21.3254 231 -25.5577V-53.3368Z"/>
</mask>
<path d="M190.663 -60H223.337V-62H190.663V-60ZM184 -20.6632V-53.3368H182V-20.6632H184ZM218.337 -14H190.663V-12H218.337V-14ZM227 22.4425V-5.33685H225V22.4425H227ZM266.337 29.1057H233.663V31.1057H266.337V29.1057ZM273 -10.2314V22.4425H275V-10.2314H273ZM238.663 -16.8945H266.337V-18.8945H238.663V-16.8945ZM230 -53.3368V-25.5577H232V-53.3368H230ZM238.663 -18.8945C234.983 -18.8945 232 -21.8777 232 -25.5577H230C230 -20.7732 233.879 -16.8945 238.663 -16.8945V-18.8945ZM275 -10.2314C275 -15.0159 271.122 -18.8945 266.337 -18.8945V-16.8945C270.017 -16.8945 273 -13.9113 273 -10.2314H275ZM266.337 31.1057C271.122 31.1057 275 27.2271 275 22.4425H273C273 26.1225 270.017 29.1057 266.337 29.1057V31.1057ZM225 22.4425C225 27.227 228.879 31.1057 233.663 31.1057V29.1057C229.983 29.1057 227 26.1225 227 22.4425H225ZM218.337 -12C222.017 -12 225 -9.01681 225 -5.33685H227C227 -10.1214 223.121 -14 218.337 -14V-12ZM182 -20.6632C182 -15.8786 185.879 -12 190.663 -12V-14C186.983 -14 184 -16.9832 184 -20.6632H182ZM223.337 -60C227.017 -60 230 -57.0168 230 -53.3368H232C232 -58.1214 228.121 -62 223.337 -62V-60ZM190.663 -62C185.879 -62 182 -58.1214 182 -53.3368H184C184 -57.0168 186.983 -60 190.663 -60V-62Z" fill="#F1AFAB" mask="url(#path-7-inside-4_4059_30951)"/>
<mask id="path-9-inside-5_4059_30951" fill="white">
<path fill-rule="evenodd" clip-rule="evenodd" d="M199.768 82.2308C202.698 82.2308 205.073 79.8556 205.073 76.9255L205.073 54.3053C205.073 51.3752 202.698 49 199.768 49L177.148 49C174.218 49 171.842 51.3752 171.842 54.3053L171.842 73.4643C171.842 76.3943 169.467 78.7695 166.537 78.7695L147.305 78.7695C144.375 78.7695 142 81.1448 142 84.0748L142 106.695C142 109.625 144.375 112 147.305 112L169.925 112C172.855 112 175.23 109.625 175.23 106.695L175.23 87.5361C175.23 84.6061 177.606 82.2308 180.536 82.2308L199.768 82.2308Z"/>
</mask>
<path d="M147.305 112L147.305 111L147.305 112ZM204.073 54.3053L204.073 76.9255L206.073 76.9255L206.073 54.3053L204.073 54.3053ZM177.148 50L199.768 50L199.768 48L177.148 48L177.148 50ZM172.842 73.4643L172.842 54.3053L170.842 54.3053L170.842 73.4643L172.842 73.4643ZM147.305 79.7695L166.537 79.7695L166.537 77.7695L147.305 77.7695L147.305 79.7695ZM143 106.695L143 84.0748L141 84.0748L141 106.695L143 106.695ZM169.925 111L147.305 111L147.305 113L169.925 113L169.925 111ZM174.23 87.5361L174.23 106.695L176.23 106.695L176.23 87.5361L174.23 87.5361ZM199.768 81.2308L180.536 81.2308L180.536 83.2308L199.768 83.2308L199.768 81.2308ZM176.23 87.5361C176.23 85.1583 178.158 83.2308 180.536 83.2308L180.536 81.2308C177.053 81.2308 174.23 84.0538 174.23 87.5361L176.23 87.5361ZM169.925 113C173.408 113 176.23 110.178 176.23 106.695L174.23 106.695C174.23 109.073 172.303 111 169.925 111L169.925 113ZM141 106.695C141 110.178 143.822 113 147.305 113L147.305 111C144.927 111 143 109.073 143 106.695L141 106.695ZM147.305 77.7695C143.822 77.7695 141 80.5925 141 84.0748L143 84.0748C143 81.6971 144.927 79.7695 147.305 79.7695L147.305 77.7695ZM170.842 73.4643C170.842 75.842 168.915 77.7695 166.537 77.7695L166.537 79.7695C170.019 79.7695 172.842 76.9466 172.842 73.4643L170.842 73.4643ZM177.148 48C173.665 48 170.842 50.823 170.842 54.3053L172.842 54.3053C172.842 51.9275 174.77 50 177.148 50L177.148 48ZM204.073 76.9255C204.073 79.3033 202.146 81.2308 199.768 81.2308L199.768 83.2308C203.25 83.2308 206.073 80.4078 206.073 76.9255L204.073 76.9255ZM206.073 54.3053C206.073 50.823 203.25 48 199.768 48L199.768 50C202.146 50 204.073 51.9275 204.073 54.3053L206.073 54.3053Z" fill="#F1AFAB" mask="url(#path-9-inside-5_4059_30951)"/>
<mask id="path-11-inside-6_4059_30951" fill="white">
<path fill-rule="evenodd" clip-rule="evenodd" d="M45.9889 70.7592C45.9889 73.6892 48.3642 76.0645 51.2942 76.0645L69.6947 76.0645C72.6248 76.0645 75 73.6892 75 70.7592L75 52.3587C75 49.4287 72.6248 47.0534 69.6947 47.0534L54.316 47.0534C51.3859 47.0534 49.0107 44.6781 49.0107 41.7481L49.0107 26.3053C49.0107 23.3753 46.6354 21 43.7054 21L25.3048 21C22.3748 21 19.9995 23.3753 19.9995 26.3053L19.9995 44.7059C19.9995 47.636 22.3748 50.0112 25.3048 50.0112L40.6837 50.0112C43.6137 50.0112 45.989 52.3865 45.989 55.3165L45.9889 70.7592Z"/>
</mask>
<path d="M19.9995 44.7059L20.9995 44.7059L19.9995 44.7059ZM25.3048 50.0112L25.3048 49.0112L25.3048 50.0112ZM49.0107 26.3053L50.0107 26.3053L49.0107 26.3053ZM54.316 47.0534L54.316 48.0534L54.316 47.0534ZM45.9889 70.7592L46.9889 70.7592L45.9889 70.7592ZM69.6947 75.0645L51.2942 75.0645L51.2942 77.0645L69.6947 77.0645L69.6947 75.0645ZM74 52.3587L74 70.7592L76 70.7592L76 52.3587L74 52.3587ZM54.316 48.0534L69.6947 48.0534L69.6947 46.0534L54.316 46.0534L54.316 48.0534ZM48.0107 26.3053L48.0107 41.7481L50.0107 41.7481L50.0107 26.3053L48.0107 26.3053ZM25.3048 22L43.7054 22L43.7054 20L25.3048 20L25.3048 22ZM20.9995 44.7059L20.9995 26.3053L18.9995 26.3053L18.9995 44.7059L20.9995 44.7059ZM40.6837 49.0112L25.3048 49.0112L25.3048 51.0112L40.6837 51.0112L40.6837 49.0112ZM46.9889 70.7592L46.989 55.3165L44.989 55.3165L44.9889 70.7592L46.9889 70.7592ZM40.6837 51.0112C43.0614 51.0112 44.989 52.9387 44.989 55.3165L46.989 55.3165C46.989 51.8342 44.166 49.0112 40.6837 49.0112L40.6837 51.0112ZM18.9995 44.7059C18.9995 48.1882 21.8225 51.0112 25.3048 51.0112L25.3048 49.0112C22.9271 49.0112 20.9995 47.0837 20.9995 44.7059L18.9995 44.7059ZM25.3048 20C21.8225 20 18.9995 22.823 18.9995 26.3053L20.9995 26.3053C20.9995 23.9276 22.9271 22 25.3048 22L25.3048 20ZM50.0107 26.3053C50.0107 22.823 47.1877 20 43.7054 20L43.7054 22C46.0832 22 48.0107 23.9276 48.0107 26.3053L50.0107 26.3053ZM54.316 46.0534C51.9382 46.0534 50.0107 44.1259 50.0107 41.7481L48.0107 41.7481C48.0107 45.2304 50.8337 48.0534 54.316 48.0534L54.316 46.0534ZM76 52.3587C76 48.8764 73.177 46.0534 69.6947 46.0534L69.6947 48.0534C72.0725 48.0534 74 49.9809 74 52.3587L76 52.3587ZM51.2942 75.0645C48.9165 75.0645 46.9889 73.1369 46.9889 70.7592L44.9889 70.7592C44.9889 74.2415 47.8119 77.0645 51.2942 77.0645L51.2942 75.0645ZM69.6947 77.0645C73.177 77.0645 76 74.2415 76 70.7592L74 70.7592C74 73.1369 72.0725 75.0645 69.6947 75.0645L69.6947 77.0645Z" fill="#F1AFAB" mask="url(#path-11-inside-6_4059_30951)"/>
<mask id="path-13-inside-7_4059_30951" fill="white">
<path fill-rule="evenodd" clip-rule="evenodd" d="M217 2.66316C217 -1.56909 213.569 -5 209.337 -5H176.663C172.431 -5 169 -1.56909 169 2.66316V35.3368C169 39.5691 172.431 43 176.663 43H204.337C208.569 43 212 46.4309 212 50.6632V78.4425C212 82.6748 215.431 86.1057 219.663 86.1057H252.337C256.569 86.1057 260 82.6748 260 78.4425V45.7686C260 41.5364 256.569 38.1055 252.337 38.1055H224.663C220.431 38.1055 217 34.6746 217 30.4423V2.66316Z"/>
</mask>
<path d="M176.663 -4H209.337V-6H176.663V-4ZM170 35.3368V2.66316H168V35.3368H170ZM204.337 42H176.663V44H204.337V42ZM213 78.4425V50.6632H211V78.4425H213ZM252.337 85.1057H219.663V87.1057H252.337V85.1057ZM259 45.7686V78.4425H261V45.7686H259ZM224.663 39.1055H252.337V37.1055H224.663V39.1055ZM216 2.66316V30.4423H218V2.66316H216ZM224.663 37.1055C220.983 37.1055 218 34.1223 218 30.4423H216C216 35.2268 219.879 39.1055 224.663 39.1055V37.1055ZM261 45.7686C261 40.9841 257.122 37.1055 252.337 37.1055V39.1055C256.017 39.1055 259 42.0887 259 45.7686H261ZM252.337 87.1057C257.122 87.1057 261 83.2271 261 78.4425H259C259 82.1225 256.017 85.1057 252.337 85.1057V87.1057ZM211 78.4425C211 83.227 214.879 87.1057 219.663 87.1057V85.1057C215.983 85.1057 213 82.1225 213 78.4425H211ZM204.337 44C208.017 44 211 46.9832 211 50.6632H213C213 45.8786 209.121 42 204.337 42V44ZM168 35.3368C168 40.1214 171.879 44 176.663 44V42C172.983 42 170 39.0168 170 35.3368H168ZM209.337 -4C213.017 -4 216 -1.0168 216 2.66316H218C218 -2.12137 214.121 -6 209.337 -6V-4ZM176.663 -6C171.879 -6 168 -2.12137 168 2.66316H170C170 -1.0168 172.983 -4 176.663 -4V-6Z" fill="#F1AFAB" mask="url(#path-13-inside-7_4059_30951)"/>
<mask id="path-15-inside-8_4059_30951" fill="white">
<path fill-rule="evenodd" clip-rule="evenodd" d="M-2.33684 34C-6.56909 34 -10 37.4309 -10 41.6632L-10 74.3368C-10 78.5691 -6.56909 82 -2.33684 82L30.3368 82C34.5691 82 38 78.5691 38 74.3368L38 46.6632C38 42.4309 41.4309 39 45.6631 39L73.4425 39C77.6748 39 81.1057 35.5691 81.1057 31.3368L81.1057 -1.33706C81.1057 -5.56929 77.6748 -9.00021 73.4425 -9.00021L40.7686 -9.00021C36.5364 -9.00021 33.1055 -5.5693 33.1055 -1.33705L33.1055 26.3368C33.1055 30.5691 29.6746 34 25.4423 34L-2.33684 34Z"/>
</mask>
<path d="M25.4423 34L25.4423 35L25.4423 34ZM33.1055 -1.33705L32.1055 -1.33705L33.1055 -1.33705ZM81.1057 -1.33706L80.1057 -1.33706L81.1057 -1.33706ZM-9 74.3368L-9 41.6632L-11 41.6632L-11 74.3368L-9 74.3368ZM30.3368 81L-2.33684 81L-2.33684 83L30.3368 83L30.3368 81ZM37 46.6632L37 74.3368L39 74.3368L39 46.6632L37 46.6632ZM73.4425 38L45.6631 38L45.6631 40L73.4425 40L73.4425 38ZM80.1057 -1.33706L80.1057 31.3368L82.1057 31.3368L82.1057 -1.33706L80.1057 -1.33706ZM40.7686 -8.00021L73.4425 -8.00021L73.4425 -10.0002L40.7686 -10.0002L40.7686 -8.00021ZM34.1055 26.3368L34.1055 -1.33705L32.1055 -1.33705L32.1055 26.3368L34.1055 26.3368ZM-2.33684 35L25.4423 35L25.4423 33L-2.33684 33L-2.33684 35ZM32.1055 26.3368C32.1055 30.0168 29.1223 33 25.4423 33L25.4423 35C30.2268 35 34.1055 31.1214 34.1055 26.3368L32.1055 26.3368ZM40.7686 -10.0002C35.9841 -10.0002 32.1055 -6.12158 32.1055 -1.33705L34.1055 -1.33705C34.1055 -5.01702 37.0887 -8.00021 40.7686 -8.00021L40.7686 -10.0002ZM82.1057 -1.33706C82.1057 -6.12158 78.227 -10.0002 73.4425 -10.0002L73.4425 -8.00021C77.1225 -8.00021 80.1057 -5.01702 80.1057 -1.33706L82.1057 -1.33706ZM73.4425 40C78.227 40 82.1057 36.1214 82.1057 31.3368L80.1057 31.3368C80.1057 35.0168 77.1225 38 73.4425 38L73.4425 40ZM39 46.6632C39 42.9832 41.9832 40 45.6631 40L45.6631 38C40.8786 38 37 41.8786 37 46.6632L39 46.6632ZM30.3368 83C35.1214 83 39 79.1214 39 74.3368L37 74.3368C37 78.0168 34.0168 81 30.3368 81L30.3368 83ZM-9 41.6632C-9 37.9832 -6.0168 35 -2.33684 35L-2.33684 33C-7.12137 33 -11 36.8786 -11 41.6632L-9 41.6632ZM-11 74.3368C-11 79.1214 -7.12137 83 -2.33684 83L-2.33684 81C-6.0168 81 -9 78.0168 -9 74.3368L-11 74.3368Z" fill="#F1AFAB" mask="url(#path-15-inside-8_4059_30951)"/>
</g>
<defs>
<clipPath id="clip0_4059_30951">
<rect width="284" height="170" fill="white"/>
</clipPath>
</defs>
</svg>
