<svg
              width="97"
              height="24"
              viewBox="0 0 97 24"
              xmlns="http://www.w3.org/2000/svg"
              class="_logo_w7l6v_103 _transparentBackground_logoColor_w7l6v_52 logo"
              aria-label="company logo"
            >
              <g id="Coditas Logo">
                <path
                  id="Vector"
                  d="M20.8863 8.92041C16.2938 8.92041 13.4094 12.2931 13.4094 16.4183C13.4094 20.5714 16.2378 23.9162 20.9143 23.9162C25.5908 23.9162 28.4472 20.5714 28.4472 16.4183C28.4752 12.2931 25.5068 8.92041 20.8863 8.92041ZM20.9143 20.655C18.31 20.655 16.9938 18.6203 16.9938 16.4183C16.9938 14.2721 18.338 12.1537 20.9143 12.1537C23.3226 12.1537 24.8347 14.2442 24.8347 16.4183C24.8628 18.5924 23.5466 20.655 20.9143 20.655Z"
                ></path>
                <g id="Group">
                  <path
                    id="Vector_2"
                    d="M94.1708 12.6002C94.0027 12.7953 93.6947 12.8232 93.4707 12.6839C92.5466 11.9592 91.5105 11.7362 90.3063 11.7362C88.6261 11.7362 87.702 12.2658 87.702 13.1577C87.702 14.0775 88.5421 14.6071 90.3623 14.7186C93.0506 14.8858 96.495 15.499 96.495 19.2898C96.495 21.7984 94.4228 23.9725 90.3343 23.9725C88.1781 23.9725 86.0218 23.638 84.0336 21.7426C83.8656 21.5754 83.8376 21.2967 83.9776 21.1015L85.1537 19.4013C85.3217 19.1504 85.6578 19.1226 85.8818 19.2898C87.0299 20.2096 88.9902 20.8786 90.4183 20.9064C91.7625 20.9343 92.9946 20.2375 92.9946 19.2062C92.9946 18.2306 92.1825 17.8125 90.1663 17.701C87.478 17.5059 84.2576 16.5303 84.2576 13.2971C84.2576 10.008 87.674 8.86523 90.2783 8.86523C92.3226 8.86523 93.9187 9.22759 95.4589 10.4261C95.6829 10.5934 95.711 10.9278 95.5149 11.1508L94.1708 12.6002Z"
                  ></path>
                </g>
                <path
                  id="Vector_3"
                  d="M41.1047 0.418097V9.95072C39.9846 9.30963 38.6404 8.94728 37.1282 8.94728C32.5357 8.94728 29.6514 12.3199 29.6514 16.4452C29.6514 20.5704 32.4517 23.9152 37.1562 23.9152C38.6684 23.9152 40.0126 23.5528 41.1047 22.9396C41.1047 23.4971 41.5527 23.9709 42.1408 23.9709H44.2691C44.4931 23.9709 44.6891 23.7758 44.6891 23.5528V0.418097C44.6891 0.195112 44.4931 0 44.2691 0H41.5247C41.3007 0 41.1047 0.167239 41.1047 0.418097ZM37.1562 20.654C34.5519 20.654 33.2358 18.6193 33.2358 16.4173C33.2358 14.2711 34.5799 12.1527 37.1562 12.1527C39.5645 12.1527 41.0767 14.2432 41.0767 16.4173C41.0767 18.5914 39.7605 20.654 37.1562 20.654Z"
                ></path>
                <path
                  id="Vector_4"
                  d="M78.741 9.1994V9.95198C77.6209 9.31089 76.2768 8.94855 74.7646 8.94855C70.1721 8.94855 67.2877 12.3212 67.2877 16.4464C67.2877 20.5995 70.1161 23.9443 74.7926 23.9443C76.3048 23.9443 77.6489 23.582 78.741 22.9687C78.741 23.5262 79.1891 24 79.7772 24H81.9054C82.1294 24 82.3255 23.8049 82.3255 23.5819V9.22728C82.3255 9.00429 82.1294 8.80918 81.9054 8.80918H79.1611C78.9371 8.78131 78.741 8.94854 78.741 9.1994ZM74.7926 20.6553C72.1883 20.6553 70.8721 18.6205 70.8721 16.4186C70.8721 14.2723 72.2163 12.154 74.7926 12.154C77.2009 12.154 78.713 14.2444 78.713 16.4186C78.741 18.5927 77.4249 20.6553 74.7926 20.6553Z"
                ></path>
                <g id="Group_2">
                  <path
                    id="Vector_5"
                    d="M54.3222 12.6272C54.3222 11.9303 54.0422 8.83643 50.3737 8.83643C48.5255 8.83643 46.5653 10.0628 46.5653 12.6272C46.5653 14.7177 47.8535 15.9162 49.3376 16.2786C49.6457 16.3622 49.9257 16.3901 50.2337 16.4179C49.7857 18.4527 48.8896 20.7661 47.0974 23.5256C46.9854 23.6928 47.1254 23.9437 47.3214 23.9437H50.3737C50.4578 23.9437 50.5418 23.8879 50.5978 23.8322C53.5101 19.8185 54.3222 14.9406 54.3222 12.6272Z"
                  ></path>
                  <path
                    id="Vector_6"
                    d="M50.4578 6.91254C52.3755 6.91254 53.9302 5.36512 53.9302 3.45627C53.9302 1.54743 52.3755 0 50.4578 0C48.54 0 46.9854 1.54743 46.9854 3.45627C46.9854 5.36512 48.54 6.91254 50.4578 6.91254Z"
                  ></path>
                </g>
                <g id="Group_3">
                  <path
                    id="Vector_7"
                    d="M11.5053 19.5384C11.3093 19.3433 10.9732 19.3433 10.7772 19.5384C10.1331 20.2074 9.20901 20.6255 8.00487 20.6255C5.40057 20.6255 4.08441 18.5907 4.08441 16.3887C4.08441 14.2425 5.42857 12.1242 8.00487 12.1242C9.01298 12.1242 9.85308 12.4865 10.4972 13.0718C10.6932 13.2391 11.0012 13.2391 11.1972 13.044L12.9334 11.288C13.1295 11.0928 13.1295 10.7305 12.9054 10.5633C11.6453 9.53195 9.9651 8.89087 7.97686 8.89087C3.38433 8.89087 0.5 12.2635 0.5 16.3887C0.5 20.5697 3.32833 23.9145 8.00487 23.9145C10.1611 23.9145 11.9253 23.2177 13.2135 22.047C13.4375 21.8519 13.4375 21.5174 13.2415 21.3223L11.5053 19.5384Z"
                  ></path>
                </g>
                <path
                  id="Vector_8"
                  d="M66.3916 20.3753C66.2236 20.0687 65.8595 19.9851 65.5515 20.1523C65.4675 20.208 65.3555 20.2638 65.2715 20.3195C65.1034 20.4032 64.9354 20.4589 64.7674 20.5146C64.4033 20.6261 64.0113 20.7098 63.6473 20.7098C63.1992 20.7098 62.8072 20.5983 62.4991 20.3753C62.0511 20.0408 61.771 19.4833 61.771 18.675V12.4593C61.771 12.1248 62.0231 11.874 62.3591 11.874H65.2154C65.5515 11.874 65.8035 11.6231 65.8035 11.2886V11.205V9.39325C65.8035 9.05877 65.5515 8.80792 65.2154 8.80792H62.4151C62.0791 8.80792 61.827 8.55706 61.827 8.22258V0.585338C61.827 0.25086 61.575 0 61.239 0H58.8307C58.4947 0 58.2426 0.25086 58.2426 0.585338V8.22258C58.2426 8.55706 57.9906 8.80792 57.6546 8.80792H56.1424C55.8064 8.80792 55.5543 9.05877 55.5543 9.39325V11.2886C55.5543 11.6231 55.8064 11.874 56.1424 11.874H57.6546C57.9906 11.874 58.2426 12.1248 58.2426 12.4593V14.1038V18.675C58.2426 19.7342 58.4107 20.654 58.7467 21.3787C59.5308 23.1347 61.211 23.9988 63.4232 23.9152C64.2073 23.8873 64.8514 23.8037 65.5515 23.5807C66.1115 23.4413 66.6436 23.2183 67.1197 22.9117C67.3997 22.7445 67.4837 22.41 67.3437 22.1313L66.3916 20.3753Z"
                ></path>
              </g>
            </svg>
