<svg xmlns="http://www.w3.org/2000/svg" width="36" height="36" viewBox="0 0 36 36" fill="none">
  <path d="M16.4625 19.7626L13.5 16.8C13.275 16.575 13 16.4625 12.675 16.4625C12.35 16.4625 12.075 16.575 11.85 16.8C11.625 17.025 11.5125 17.298 11.5125 17.6188C11.5125 17.9396 11.625 18.2167 11.85 18.45L15.5625 22.2001C15.7875 22.425 16.05 22.5375 16.35 22.5375C16.65 22.5375 16.9125 22.425 17.1375 22.2001L24.1125 15.225C24.3375 14.9984 24.45 14.7292 24.45 14.4176C24.45 14.1059 24.3438 13.85 24.1313 13.65C23.9188 13.45 23.65 13.3563 23.325 13.3688C23 13.3813 22.7375 13.4875 22.5375 13.6875L16.4625 19.7626ZM18 32.85C17.867 32.85 17.7435 32.8375 17.6295 32.8125C17.5155 32.7875 17.4015 32.75 17.2875 32.7001C13.8125 31.525 11.0625 29.4188 9.0375 26.3813C7.0125 23.3438 6 20.0112 6 16.3836V9.03755C6 8.55612 6.13594 8.12285 6.40781 7.73772C6.67969 7.35257 7.03125 7.07335 7.4625 6.90005L17.2125 3.26255C17.4875 3.16255 17.75 3.11255 18 3.11255C18.25 3.11255 18.5125 3.16255 18.7875 3.26255L28.5375 6.90005C28.9688 7.07335 29.3203 7.35257 29.5922 7.73772C29.8641 8.12285 30 8.55612 30 9.03755V16.3836C30 20.0112 28.9875 23.3438 26.9625 26.3813C24.9375 29.4188 22.1875 31.525 18.7125 32.7001C18.5985 32.75 18.4845 32.7875 18.3705 32.8125C18.2565 32.8375 18.133 32.85 18 32.85ZM18 30.6376C20.875 29.6875 23.2188 27.8938 25.0312 25.2563C26.8438 22.6188 27.75 19.6625 27.75 16.3875V9.03755L18 5.36255L8.25 9.03755V16.3875C8.25 19.6625 9.15625 22.6188 10.9688 25.2563C12.7812 27.8938 15.125 29.6875 18 30.6376Z" fill="white"/>
</svg>