<svg width="36" height="36" viewBox="0 0 32 28" fill="none" xmlns="http://www.w3.org/2000/svg">
<path id="Vector" d="M23.473 28C22.9118 28 22.4279 27.8018 22.0212 27.4053C21.6145 27.0088 21.4112 26.537 21.4112 25.9898V23.0974H17.0309C16.4697 23.0974 15.9858 22.8992 15.5791 22.5027C15.1725 22.1062 14.9691 21.6344 14.9691 21.0872V6.9025H10.6056V9.88719C10.6056 10.4344 10.4023 10.9062 9.99564 11.3027C9.58899 11.6992 9.10506 11.8974 8.54386 11.8974H2.06175C1.50054 11.8974 1.01662 11.6992 0.609971 11.3027C0.203324 10.9062 0 10.4344 0 9.88719V2.01021C0 1.46303 0.203324 0.991204 0.609971 0.594723C1.01662 0.198242 1.50054 0 2.06175 0H8.54386C9.10506 0 9.58899 0.198242 9.99564 0.594723C10.4023 0.991204 10.6056 1.46303 10.6056 2.01021V4.89229H21.4112V2.01021C21.4112 1.46303 21.6145 0.991204 22.0212 0.594723C22.4279 0.198242 22.9118 0 23.473 0H29.9382C30.4995 0 30.9834 0.198242 31.39 0.594723C31.7967 0.991204 32 1.46303 32 2.01021V9.88719C32 10.4344 31.7967 10.9062 31.39 11.3027C30.9834 11.6992 30.4995 11.8974 29.9382 11.8974H23.473C22.9118 11.8974 22.4279 11.6992 22.0212 11.3027C21.6145 10.9062 21.4112 10.4344 21.4112 9.88719V6.9025H17.0309V21.0872H21.4112V18.1025C21.4112 17.5607 21.6145 17.0902 22.0212 16.691C22.4279 16.2919 22.9118 16.0923 23.473 16.0923H29.9382C30.4995 16.0923 30.9834 16.2919 31.39 16.691C31.7967 17.0902 32 17.5607 32 18.1025V25.9898C32 26.537 31.7967 27.0088 31.39 27.4053C30.9834 27.8018 30.4995 28 29.9382 28H23.473ZM23.473 9.88719H29.9382V2.01021H23.473V9.88719ZM23.473 25.9898H29.9382V18.1025H23.473V25.9898ZM2.06175 9.88719H8.54386V2.01021H2.06175V9.88719Z" fill="white"/>
</svg>
