<svg width="36" height="36" viewBox="0 0 30 30" fill="none" xmlns="http://www.w3.org/2000/svg">
<path id="Vector" d="M8.00821 14.9525C7.69204 14.9525 7.42912 15.0586 7.21948 15.2708C7.00983 15.483 6.90501 15.7464 6.90501 16.0611V22.3394C6.90501 22.654 7.01161 22.9175 7.22481 23.1297C7.43805 23.3418 7.70276 23.4479 8.01894 23.4479C8.33511 23.4479 8.59802 23.3418 8.80767 23.1297C9.01732 22.9175 9.12214 22.654 9.12214 22.3394V16.0611C9.12214 15.7464 9.01553 15.483 8.80229 15.2708C8.58908 15.0586 8.32439 14.9525 8.00821 14.9525ZM21.9811 5.81221C21.6649 5.81221 21.402 5.9183 21.1923 6.13048C20.9827 6.34268 20.8779 6.60611 20.8779 6.92076V22.3394C20.8779 22.654 20.9845 22.9175 21.1977 23.1297C21.4109 23.3418 21.6756 23.4479 21.9918 23.4479C22.308 23.4479 22.5709 23.3418 22.7805 23.1297C22.9902 22.9175 23.095 22.654 23.095 22.3394V6.92076C23.095 6.60611 22.9884 6.34268 22.7752 6.13048C22.5619 5.9183 22.2972 5.81221 21.9811 5.81221ZM14.9947 18.6312C14.6785 18.6312 14.4156 18.7392 14.2059 18.955C13.9963 19.1709 13.8915 19.4325 13.8915 19.7398V22.3394C13.8915 22.654 13.9981 22.9175 14.2113 23.1297C14.4245 23.3418 14.6892 23.4479 15.0053 23.4479C15.3215 23.4479 15.5844 23.3418 15.7941 23.1297C16.0037 22.9175 16.1085 22.654 16.1085 22.3394V19.7398C16.1085 19.4325 16.0019 19.1709 15.7887 18.955C15.5755 18.7392 15.3108 18.6312 14.9947 18.6312ZM2.76018 30C2.00171 30 1.35206 29.7296 0.811238 29.1888C0.270413 28.6479 0 27.9983 0 27.2398V2.76019C0 2.00171 0.270413 1.35206 0.811238 0.811238C1.35206 0.270413 2.00171 0 2.76018 0H27.2398C27.9983 0 28.6479 0.270413 29.1888 0.811238C29.7296 1.35206 30 2.00171 30 2.76019V27.2398C30 27.9983 29.7296 28.6479 29.1888 29.1888C28.6479 29.7296 27.9983 30 27.2398 30H2.76018ZM2.76018 27.7829H27.2398C27.3756 27.7829 27.5 27.7263 27.6131 27.6131C27.7263 27.5 27.7829 27.3756 27.7829 27.2398V2.76019C27.7829 2.62442 27.7263 2.49998 27.6131 2.38686C27.5 2.27371 27.3756 2.21714 27.2398 2.21714H2.76018C2.62442 2.21714 2.49998 2.27371 2.38686 2.38686C2.27371 2.49998 2.21714 2.62442 2.21714 2.76019V27.2398C2.21714 27.3756 2.27371 27.5 2.38686 27.6131C2.49998 27.7263 2.62442 27.7829 2.76018 27.7829ZM15.0053 14.5113C15.3215 14.5113 15.5844 14.4047 15.7941 14.1915C16.0037 13.9782 16.1085 13.7135 16.1085 13.3973C16.1085 13.0812 16.0019 12.8182 15.7887 12.6086C15.5755 12.3989 15.3108 12.2941 14.9947 12.2941C14.6785 12.2941 14.4156 12.4007 14.2059 12.614C13.9963 12.8272 13.8915 13.0919 13.8915 13.4081C13.8915 13.7242 13.9981 13.9871 14.2113 14.1968C14.4245 14.4064 14.6892 14.5113 15.0053 14.5113Z" fill="white"/>
</svg>
