<svg width="36" height="36" viewBox="0 0 28 28" fill="none" xmlns="http://www.w3.org/2000/svg">
<path id="Vector" d="M6.32439 4.47524C5.80768 4.47524 5.36914 4.65219 5.00876 5.00609C4.64838 5.36 4.46819 5.78974 4.46819 6.29532C4.46819 6.8009 4.64904 7.22999 5.01074 7.58261C5.37243 7.93522 5.81164 8.11153 6.32835 8.11153C6.84506 8.11153 7.2836 7.93458 7.64398 7.58067C8.00436 7.22677 8.18455 6.79703 8.18455 6.29145C8.18455 5.78584 8.0037 5.35673 7.642 5.00412C7.28031 4.65153 6.8411 4.47524 6.32439 4.47524ZM6.32439 19.872C5.80768 19.872 5.36914 20.0489 5.00876 20.4028C4.64838 20.7567 4.46819 21.1865 4.46819 21.692C4.46819 22.1976 4.64904 22.6267 5.01074 22.9794C5.37243 23.3319 5.81164 23.5082 6.32835 23.5082C6.84506 23.5082 7.2836 23.3313 7.64398 22.9774C8.00436 22.6235 8.18455 22.1937 8.18455 21.6882C8.18455 21.1826 8.0037 20.7535 7.642 20.4009C7.28031 20.0483 6.8411 19.872 6.32439 19.872ZM1.33453 0H26.6505C27.0437 0 27.3669 0.123515 27.6201 0.370543C27.8734 0.617572 28 0.939781 28 1.33717V11.0578C28 11.5083 27.8734 11.8785 27.6201 12.1684C27.3669 12.4583 27.0437 12.6033 26.6505 12.6033H1.33453C0.951289 12.6033 0.633062 12.4583 0.379854 12.1684C0.126618 11.8785 0 11.5083 0 11.0578V1.33717C0 0.939781 0.126618 0.617572 0.379854 0.370543C0.633062 0.123515 0.951289 0 1.33453 0ZM2.06933 2.02475V10.5785H25.9307V2.02475H2.06933ZM1.33453 15.3802H26.5282C26.9336 15.3802 27.2803 15.5307 27.5681 15.8318C27.856 16.1328 28 16.4839 28 16.8851V26.4339C28 26.9235 27.856 27.307 27.5681 27.5842C27.2803 27.8614 26.9336 28 26.5282 28H1.47182C1.04808 28 0.696845 27.8614 0.418107 27.5842C0.139369 27.307 0 26.9235 0 26.4339V16.8851C0 16.4839 0.121073 16.1328 0.363219 15.8318C0.605337 15.5307 0.929108 15.3802 1.33453 15.3802ZM2.06933 17.4049V25.9753H25.9307V17.4049H2.06933Z" fill="white"/>
</svg>
