<svg width="231" height="262" viewBox="0 0 231 262" fill="none" xmlns="http://www.w3.org/2000/svg">
<g id="Doodle Dots" opacity="0.5">
<mask id="mask0_1978_105537" style="mask-type:alpha" maskUnits="userSpaceOnUse" x="25" y="28" width="180" height="206">
<ellipse id="Ellipse 81" cx="90.8413" cy="100.738" rx="90.8413" ry="100.738" transform="matrix(0.927179 -0.377303 0.294751 0.95649 1.27249 68.8226)" fill="white" fill-opacity="0.5"/>
</mask>
<g mask="url(#mask0_1978_105537)">
<g id="Group 4">
<ellipse id="Ellipse 27" cx="3.99393" cy="4.40179" rx="3.99393" ry="4.40179" transform="matrix(0.926706 -0.378832 0.293494 0.957001 17.791 118.248)" fill="white" fill-opacity="0.5"/>
<ellipse id="Ellipse 36" cx="3.99393" cy="4.40179" rx="3.99393" ry="4.40179" transform="matrix(0.926706 -0.378832 0.293494 0.957001 26.4649 145.088)" fill="white" fill-opacity="0.5"/>
<ellipse id="Ellipse 45" cx="3.99393" cy="4.40179" rx="3.99393" ry="4.40179" transform="matrix(0.926706 -0.378832 0.293494 0.957001 35.1387 171.923)" fill="white" fill-opacity="0.5"/>
<ellipse id="Ellipse 54" cx="3.99393" cy="4.40179" rx="3.99393" ry="4.40179" transform="matrix(0.926706 -0.378832 0.293494 0.957001 43.8116 198.757)" fill="white" fill-opacity="0.5"/>
<ellipse id="Ellipse 63" cx="3.99393" cy="4.40179" rx="3.99393" ry="4.40179" transform="matrix(0.926706 -0.378832 0.293494 0.957001 52.4854 225.594)" fill="white" fill-opacity="0.5"/>
<ellipse id="Ellipse 10" cx="3.99393" cy="4.40179" rx="3.99393" ry="4.40179" transform="matrix(0.926706 -0.378832 0.293494 0.957001 20.5733 56.7527)" fill="white" fill-opacity="0.5"/>
<ellipse id="Ellipse 19" cx="3.99393" cy="4.40179" rx="3.99393" ry="4.40179" transform="matrix(0.926706 -0.378832 0.293494 0.957001 29.2461 83.5881)" fill="white" fill-opacity="0.5"/>
<ellipse id="Ellipse 28" cx="3.99393" cy="4.40179" rx="3.99393" ry="4.40179" transform="matrix(0.926706 -0.378832 0.293494 0.957001 37.919 110.424)" fill="white" fill-opacity="0.5"/>
<ellipse id="Ellipse 37" cx="3.99393" cy="4.40179" rx="3.99393" ry="4.40179" transform="matrix(0.926706 -0.378832 0.293494 0.957001 46.5938 137.263)" fill="white" fill-opacity="0.5"/>
<ellipse id="Ellipse 46" cx="3.99393" cy="4.40179" rx="3.99393" ry="4.40179" transform="matrix(0.926706 -0.378832 0.293494 0.957001 55.2666 164.099)" fill="white" fill-opacity="0.5"/>
<ellipse id="Ellipse 55" cx="3.99393" cy="4.40179" rx="3.99393" ry="4.40179" transform="matrix(0.926706 -0.378832 0.293494 0.957001 63.9395 190.932)" fill="white" fill-opacity="0.5"/>
<ellipse id="Ellipse 64" cx="3.99393" cy="4.40179" rx="3.99393" ry="4.40179" transform="matrix(0.926706 -0.378832 0.293494 0.957001 72.6133 217.77)" fill="white" fill-opacity="0.5"/>
<ellipse id="Ellipse 11" cx="3.99393" cy="4.40179" rx="3.99393" ry="4.40179" transform="matrix(0.926706 -0.378832 0.293494 0.957001 40.6973 48.9299)" fill="white" fill-opacity="0.5"/>
<ellipse id="Ellipse 20" cx="3.99393" cy="4.40179" rx="3.99393" ry="4.40179" transform="matrix(0.926706 -0.378832 0.293494 0.957001 49.3711 75.7654)" fill="white" fill-opacity="0.5"/>
<ellipse id="Ellipse 29" cx="3.99393" cy="4.40179" rx="3.99393" ry="4.40179" transform="matrix(0.926706 -0.378832 0.293494 0.957001 58.044 102.601)" fill="white" fill-opacity="0.5"/>
<ellipse id="Ellipse 38" cx="3.99393" cy="4.40179" rx="3.99393" ry="4.40179" transform="matrix(0.926706 -0.378832 0.293494 0.957001 66.7188 129.441)" fill="white" fill-opacity="0.5"/>
<ellipse id="Ellipse 47" cx="3.99393" cy="4.40179" rx="3.99393" ry="4.40179" transform="matrix(0.926706 -0.378832 0.293494 0.957001 75.3916 156.276)" fill="white" fill-opacity="0.5"/>
<ellipse id="Ellipse 56" cx="3.99393" cy="4.40179" rx="3.99393" ry="4.40179" transform="matrix(0.926706 -0.378832 0.293494 0.957001 84.0645 183.11)" fill="white" fill-opacity="0.5"/>
<ellipse id="Ellipse 65" cx="3.99393" cy="4.40179" rx="3.99393" ry="4.40179" transform="matrix(0.926706 -0.378832 0.293494 0.957001 92.7383 209.947)" fill="white" fill-opacity="0.5"/>
<ellipse id="Ellipse 12" cx="3.99393" cy="4.40179" rx="3.99393" ry="4.40179" transform="matrix(0.926706 -0.378832 0.293494 0.957001 60.8262 41.1056)" fill="white" fill-opacity="0.5"/>
<ellipse id="Ellipse 21" cx="3.99393" cy="4.40179" rx="3.99393" ry="4.40179" transform="matrix(0.926706 -0.378832 0.293494 0.957001 69.4991 67.9412)" fill="white" fill-opacity="0.5"/>
<ellipse id="Ellipse 30" cx="3.99393" cy="4.40179" rx="3.99393" ry="4.40179" transform="matrix(0.926706 -0.378832 0.293494 0.957001 78.1729 94.7769)" fill="white" fill-opacity="0.5"/>
<ellipse id="Ellipse 39" cx="3.99393" cy="4.40179" rx="3.99393" ry="4.40179" transform="matrix(0.926706 -0.378832 0.293494 0.957001 86.8467 121.616)" fill="white" fill-opacity="0.5"/>
<ellipse id="Ellipse 48" cx="3.99393" cy="4.40179" rx="3.99393" ry="4.40179" transform="matrix(0.926706 -0.378832 0.293494 0.957001 95.5205 148.452)" fill="white" fill-opacity="0.5"/>
<ellipse id="Ellipse 57" cx="3.99393" cy="4.40179" rx="3.99393" ry="4.40179" transform="matrix(0.926706 -0.378832 0.293494 0.957001 104.192 175.285)" fill="white" fill-opacity="0.5"/>
<ellipse id="Ellipse 66" cx="3.99393" cy="4.40179" rx="3.99393" ry="4.40179" transform="matrix(0.926706 -0.378832 0.293494 0.957001 112.867 202.123)" fill="white" fill-opacity="0.5"/>
<ellipse id="Ellipse 75" cx="3.99393" cy="4.40179" rx="3.99393" ry="4.40179" transform="matrix(0.926706 -0.378832 0.293494 0.957001 121.541 228.963)" fill="white" fill-opacity="0.5"/>
<ellipse id="Ellipse 13" cx="3.99393" cy="4.40179" rx="3.99393" ry="4.40179" transform="matrix(0.926706 -0.378832 0.293494 0.957001 80.9541 33.2814)" fill="white" fill-opacity="0.5"/>
<ellipse id="Ellipse 22" cx="3.99393" cy="4.40179" rx="3.99393" ry="4.40179" transform="matrix(0.926706 -0.378832 0.293494 0.957001 89.628 60.1169)" fill="white" fill-opacity="0.5"/>
<ellipse id="Ellipse 31" cx="3.99393" cy="4.40179" rx="3.99393" ry="4.40179" transform="matrix(0.926706 -0.378832 0.293494 0.957001 98.3008 86.9525)" fill="white" fill-opacity="0.5"/>
<ellipse id="Ellipse 40" cx="3.99393" cy="4.40179" rx="3.99393" ry="4.40179" transform="matrix(0.926706 -0.378832 0.293494 0.957001 106.976 113.792)" fill="white" fill-opacity="0.5"/>
<ellipse id="Ellipse 49" cx="3.99393" cy="4.40179" rx="3.99393" ry="4.40179" transform="matrix(0.926706 -0.378832 0.293494 0.957001 115.648 140.628)" fill="white" fill-opacity="0.5"/>
<ellipse id="Ellipse 58" cx="3.99393" cy="4.40179" rx="3.99393" ry="4.40179" transform="matrix(0.926706 -0.378832 0.293494 0.957001 124.321 167.461)" fill="white" fill-opacity="0.5"/>
<ellipse id="Ellipse 67" cx="3.99393" cy="4.40179" rx="3.99393" ry="4.40179" transform="matrix(0.926706 -0.378832 0.293494 0.957001 132.995 194.299)" fill="white" fill-opacity="0.5"/>
<ellipse id="Ellipse 76" cx="3.99393" cy="4.40179" rx="3.99393" ry="4.40179" transform="matrix(0.926706 -0.378832 0.293494 0.957001 141.67 221.138)" fill="white" fill-opacity="0.5"/>
<ellipse id="Ellipse 14" cx="3.99393" cy="4.40179" rx="3.99393" ry="4.40179" transform="matrix(0.926706 -0.378832 0.293494 0.957001 101.079 25.4586)" fill="white" fill-opacity="0.5"/>
<ellipse id="Ellipse 23" cx="3.99393" cy="4.40179" rx="3.99393" ry="4.40179" transform="matrix(0.926706 -0.378832 0.293494 0.957001 109.753 52.2943)" fill="white" fill-opacity="0.5"/>
<ellipse id="Ellipse 32" cx="3.99393" cy="4.40179" rx="3.99393" ry="4.40179" transform="matrix(0.926706 -0.378832 0.293494 0.957001 118.426 79.1298)" fill="white" fill-opacity="0.5"/>
<ellipse id="Ellipse 41" cx="3.99393" cy="4.40179" rx="3.99393" ry="4.40179" transform="matrix(0.926706 -0.378832 0.293494 0.957001 127.101 105.969)" fill="white" fill-opacity="0.5"/>
<ellipse id="Ellipse 50" cx="3.99393" cy="4.40179" rx="3.99393" ry="4.40179" transform="matrix(0.926706 -0.378832 0.293494 0.957001 135.773 132.805)" fill="white" fill-opacity="0.5"/>
<ellipse id="Ellipse 59" cx="3.99393" cy="4.40179" rx="3.99393" ry="4.40179" transform="matrix(0.926706 -0.378832 0.293494 0.957001 144.446 159.638)" fill="white" fill-opacity="0.5"/>
<ellipse id="Ellipse 68" cx="3.99393" cy="4.40179" rx="3.99393" ry="4.40179" transform="matrix(0.926706 -0.378832 0.293494 0.957001 153.12 186.476)" fill="white" fill-opacity="0.5"/>
<ellipse id="Ellipse 77" cx="3.99393" cy="4.40179" rx="3.99393" ry="4.40179" transform="matrix(0.926706 -0.378832 0.293494 0.957001 161.795 213.316)" fill="white" fill-opacity="0.5"/>
<ellipse id="Ellipse 24" cx="3.99393" cy="4.40179" rx="3.99393" ry="4.40179" transform="matrix(0.926706 -0.378832 0.293494 0.957001 129.881 44.47)" fill="white" fill-opacity="0.5"/>
<ellipse id="Ellipse 33" cx="3.99393" cy="4.40179" rx="3.99393" ry="4.40179" transform="matrix(0.926706 -0.378832 0.293494 0.957001 138.555 71.3055)" fill="white" fill-opacity="0.5"/>
<ellipse id="Ellipse 42" cx="3.99393" cy="4.40179" rx="3.99393" ry="4.40179" transform="matrix(0.926706 -0.378832 0.293494 0.957001 147.229 98.1451)" fill="white" fill-opacity="0.5"/>
<ellipse id="Ellipse 51" cx="3.99393" cy="4.40179" rx="3.99393" ry="4.40179" transform="matrix(0.926706 -0.378832 0.293494 0.957001 155.902 124.981)" fill="white" fill-opacity="0.5"/>
<ellipse id="Ellipse 60" cx="3.99393" cy="4.40179" rx="3.99393" ry="4.40179" transform="matrix(0.926706 -0.378832 0.293494 0.957001 164.574 151.814)" fill="white" fill-opacity="0.5"/>
<ellipse id="Ellipse 69" cx="3.99393" cy="4.40179" rx="3.99393" ry="4.40179" transform="matrix(0.926706 -0.378832 0.293494 0.957001 173.248 178.652)" fill="white" fill-opacity="0.5"/>
<ellipse id="Ellipse 78" cx="3.99393" cy="4.40179" rx="3.99393" ry="4.40179" transform="matrix(0.926706 -0.378832 0.293494 0.957001 181.923 205.492)" fill="white" fill-opacity="0.5"/>
<ellipse id="Ellipse 25" cx="3.99393" cy="4.40179" rx="3.99393" ry="4.40179" transform="matrix(0.926706 -0.378832 0.293494 0.957001 150.01 36.6458)" fill="white" fill-opacity="0.5"/>
<ellipse id="Ellipse 34" cx="3.99393" cy="4.40179" rx="3.99393" ry="4.40179" transform="matrix(0.926706 -0.378832 0.293494 0.957001 158.683 63.4812)" fill="white" fill-opacity="0.5"/>
<ellipse id="Ellipse 43" cx="3.99393" cy="4.40179" rx="3.99393" ry="4.40179" transform="matrix(0.926706 -0.378832 0.293494 0.957001 167.357 90.321)" fill="white" fill-opacity="0.5"/>
<ellipse id="Ellipse 52" cx="3.99393" cy="4.40179" rx="3.99393" ry="4.40179" transform="matrix(0.926706 -0.378832 0.293494 0.957001 176.03 117.156)" fill="white" fill-opacity="0.5"/>
<ellipse id="Ellipse 61" cx="3.99393" cy="4.40179" rx="3.99393" ry="4.40179" transform="matrix(0.926706 -0.378832 0.293494 0.957001 184.703 143.99)" fill="white" fill-opacity="0.5"/>
<ellipse id="Ellipse 70" cx="3.99393" cy="4.40179" rx="3.99393" ry="4.40179" transform="matrix(0.926706 -0.378832 0.293494 0.957001 193.377 170.828)" fill="white" fill-opacity="0.5"/>
<ellipse id="Ellipse 79" cx="3.99393" cy="4.40179" rx="3.99393" ry="4.40179" transform="matrix(0.926706 -0.378832 0.293494 0.957001 202.052 197.667)" fill="white" fill-opacity="0.5"/>
<ellipse id="Ellipse 26" cx="3.99393" cy="4.40179" rx="3.99393" ry="4.40179" transform="matrix(0.926706 -0.378832 0.293494 0.957001 170.135 28.823)" fill="white" fill-opacity="0.5"/>
<ellipse id="Ellipse 35" cx="3.99393" cy="4.40179" rx="3.99393" ry="4.40179" transform="matrix(0.926706 -0.378832 0.293494 0.957001 178.808 55.6584)" fill="white" fill-opacity="0.5"/>
<ellipse id="Ellipse 44" cx="3.99393" cy="4.40179" rx="3.99393" ry="4.40179" transform="matrix(0.926706 -0.378832 0.293494 0.957001 187.482 82.4982)" fill="white" fill-opacity="0.5"/>
<ellipse id="Ellipse 53" cx="3.99393" cy="4.40179" rx="3.99393" ry="4.40179" transform="matrix(0.926706 -0.378832 0.293494 0.957001 196.155 109.334)" fill="white" fill-opacity="0.5"/>
</g>
</g>
</g>
</svg>
