<svg width="129" height="146" viewBox="0 0 129 146" fill="none" xmlns="http://www.w3.org/2000/svg">
<g id="Doodle Dots" opacity="0.2">
<mask id="mask0_1978_105612" style="mask-type:alpha" maskUnits="userSpaceOnUse" x="14" y="16" width="101" height="115">
<ellipse id="Ellipse 81" cx="50.6414" cy="56.1587" rx="50.6414" ry="56.1587" transform="matrix(0.927179 -0.377303 0.294751 0.95649 1.00005 38.4587)" fill="white" fill-opacity="0.5"/>
</mask>
<g mask="url(#mask0_1978_105612)">
<g id="Group 4">
<ellipse id="Ellipse 36" cx="3.99393" cy="4.40179" rx="3.99393" ry="4.40179" transform="matrix(0.926706 -0.378832 0.293494 0.957001 7.18266 120.403)" fill="white" fill-opacity="0.5"/>
<ellipse id="Ellipse 19" cx="3.99393" cy="4.40179" rx="3.99393" ry="4.40179" transform="matrix(0.926706 -0.378832 0.293494 0.957001 9.96391 58.9034)" fill="white" fill-opacity="0.5"/>
<ellipse id="Ellipse 28" cx="3.99393" cy="4.40179" rx="3.99393" ry="4.40179" transform="matrix(0.926706 -0.378832 0.293494 0.957001 18.6368 85.7391)" fill="white" fill-opacity="0.5"/>
<ellipse id="Ellipse 37" cx="3.99393" cy="4.40179" rx="3.99393" ry="4.40179" transform="matrix(0.926706 -0.378832 0.293494 0.957001 27.3116 112.579)" fill="white" fill-opacity="0.5"/>
<ellipse id="Ellipse 11" cx="3.99393" cy="4.40179" rx="3.99393" ry="4.40179" transform="matrix(0.926706 -0.378832 0.293494 0.957001 21.4151 24.2452)" fill="white" fill-opacity="0.5"/>
<ellipse id="Ellipse 20" cx="3.99393" cy="4.40179" rx="3.99393" ry="4.40179" transform="matrix(0.926706 -0.378832 0.293494 0.957001 30.0889 51.0807)" fill="white" fill-opacity="0.5"/>
<ellipse id="Ellipse 29" cx="3.99393" cy="4.40179" rx="3.99393" ry="4.40179" transform="matrix(0.926706 -0.378832 0.293494 0.957001 38.7617 77.9164)" fill="white" fill-opacity="0.5"/>
<ellipse id="Ellipse 38" cx="3.99393" cy="4.40179" rx="3.99393" ry="4.40179" transform="matrix(0.926706 -0.378832 0.293494 0.957001 47.4366 104.756)" fill="white" fill-opacity="0.5"/>
<ellipse id="Ellipse 47" cx="3.99393" cy="4.40179" rx="3.99393" ry="4.40179" transform="matrix(0.926706 -0.378832 0.293494 0.957001 56.1094 131.591)" fill="white" fill-opacity="0.5"/>
<ellipse id="Ellipse 12" cx="3.99393" cy="4.40179" rx="3.99393" ry="4.40179" transform="matrix(0.926706 -0.378832 0.293494 0.957001 41.544 16.4209)" fill="white" fill-opacity="0.5"/>
<ellipse id="Ellipse 21" cx="3.99393" cy="4.40179" rx="3.99393" ry="4.40179" transform="matrix(0.926706 -0.378832 0.293494 0.957001 50.2168 43.2565)" fill="white" fill-opacity="0.5"/>
<ellipse id="Ellipse 30" cx="3.99393" cy="4.40179" rx="3.99393" ry="4.40179" transform="matrix(0.926706 -0.378832 0.293494 0.957001 58.8907 70.0922)" fill="white" fill-opacity="0.5"/>
<ellipse id="Ellipse 39" cx="3.99393" cy="4.40179" rx="3.99393" ry="4.40179" transform="matrix(0.926706 -0.378832 0.293494 0.957001 67.5645 96.9316)" fill="white" fill-opacity="0.5"/>
<ellipse id="Ellipse 48" cx="3.99393" cy="4.40179" rx="3.99393" ry="4.40179" transform="matrix(0.926706 -0.378832 0.293494 0.957001 76.2383 123.767)" fill="white" fill-opacity="0.5"/>
<ellipse id="Ellipse 13" cx="3.99393" cy="4.40179" rx="3.99393" ry="4.40179" transform="matrix(0.926706 -0.378832 0.293494 0.957001 61.6719 8.59668)" fill="white" fill-opacity="0.5"/>
<ellipse id="Ellipse 22" cx="3.99393" cy="4.40179" rx="3.99393" ry="4.40179" transform="matrix(0.926706 -0.378832 0.293494 0.957001 70.3457 35.4323)" fill="white" fill-opacity="0.5"/>
<ellipse id="Ellipse 31" cx="3.99393" cy="4.40179" rx="3.99393" ry="4.40179" transform="matrix(0.926706 -0.378832 0.293494 0.957001 79.0186 62.2678)" fill="white" fill-opacity="0.5"/>
<ellipse id="Ellipse 40" cx="3.99393" cy="4.40179" rx="3.99393" ry="4.40179" transform="matrix(0.926706 -0.378832 0.293494 0.957001 87.6934 89.1074)" fill="white" fill-opacity="0.5"/>
<ellipse id="Ellipse 49" cx="3.99393" cy="4.40179" rx="3.99393" ry="4.40179" transform="matrix(0.926706 -0.378832 0.293494 0.957001 96.3662 115.943)" fill="white" fill-opacity="0.5"/>
<ellipse id="Ellipse 23" cx="3.99393" cy="4.40179" rx="3.99393" ry="4.40179" transform="matrix(0.926706 -0.378832 0.293494 0.957001 90.4707 27.6096)" fill="white" fill-opacity="0.5"/>
<ellipse id="Ellipse 32" cx="3.99393" cy="4.40179" rx="3.99393" ry="4.40179" transform="matrix(0.926706 -0.378832 0.293494 0.957001 99.1436 54.4451)" fill="white" fill-opacity="0.5"/>
<ellipse id="Ellipse 41" cx="3.99393" cy="4.40179" rx="3.99393" ry="4.40179" transform="matrix(0.926706 -0.378832 0.293494 0.957001 107.818 81.2847)" fill="white" fill-opacity="0.5"/>
<ellipse id="Ellipse 24" cx="3.99393" cy="4.40179" rx="3.99393" ry="4.40179" transform="matrix(0.926706 -0.378832 0.293494 0.957001 110.599 19.7853)" fill="white" fill-opacity="0.5"/>
</g>
</g>
</g>
</svg>
