<svg width="40" height="40" viewBox="0 0 40 40" fill="none" xmlns="http://www.w3.org/2000/svg">
<g id="ic_gcp">
<path id="Vector" d="M4.92615 15.4563L5.10232 15.9171C5.09796 15.919 5.09443 15.9205 5.09198 15.9215C5.08239 15.9254 5.07537 15.9278 5.07327 15.9286L5.06785 15.9304L5.06654 15.9308L5.06531 15.9312L5.06016 15.9325C5.05808 15.933 5.05142 15.9347 5.04199 15.9365C5.03955 15.937 5.03609 15.9377 5.03181 15.9384L4.92615 15.4563ZM4.92615 15.4563L5.19447 15.864C5.20012 15.8598 5.2063 15.8551 5.21284 15.8499C5.22518 15.8399 5.24219 15.8253 5.26075 15.8059C5.27854 15.7873 5.30472 15.757 5.32951 15.7151C5.34777 15.6843 5.37012 15.6389 5.3845 15.5808L4.92615 15.4563ZM20.3059 4.46493L20.4299 4.46778L20.4313 4.46708C23.8558 4.57595 27.1402 5.84772 29.7441 8.07084L29.6577 9.24691L30.3416 8.56295C32.3616 10.4692 33.8174 12.8995 34.5435 15.5867L34.592 15.7663L34.746 15.8705C43.5678 21.8372 39.287 35.6235 28.6365 35.5363V35.5363H28.6324H20.1649L20.1124 35.4913H19.9274L11.3074 35.4913L11.3054 35.4913C8.96285 35.5008 6.6817 34.7428 4.81078 33.3332L4.57973 33.6398L4.56177 33.6333L4.82136 33.2965C-1.03942 28.7798 -0.952595 19.9582 5.16559 15.8974C5.16607 15.8971 5.16654 15.8969 5.16702 15.8967C5.17449 15.893 5.18911 15.8857 5.20653 15.8752C5.21537 15.8699 5.22918 15.8612 5.24525 15.8494C5.2535 15.8434 5.264 15.8353 5.27571 15.8252C5.28713 15.8154 5.30253 15.8013 5.31931 15.7829C5.33544 15.7652 5.35865 15.7373 5.381 15.6993C5.4028 15.6622 5.43201 15.6016 5.44429 15.5213C5.44823 15.4955 5.45042 15.4677 5.44998 15.4382C6.35154 12.2478 8.28012 9.44195 10.939 7.4568C13.6392 5.44079 16.937 4.38745 20.3059 4.46493ZM19.7014 10.3791L19.7014 10.3806C18.4805 10.419 17.2798 10.702 16.1704 11.213C15.0963 11.7077 14.1289 12.4063 13.3219 13.2695C13.321 13.27 13.3203 13.2704 13.3196 13.2707L11.7142 13.8882L13.4188 14.222C15.846 14.6973 18.0304 15.9939 19.6087 17.8866L15.3779 22.1174C13.7546 19.5768 10.1201 19.1018 7.90071 21.3134L7.89958 21.3145C5.51915 23.7019 6.25054 27.7396 9.32353 29.128C9.94858 29.4112 10.624 29.5563 11.3074 29.5563H19.4662V30.3284L20.1858 29.6088H28.6262C30.2319 29.6396 31.4754 29.0522 32.3126 28.1249C33.1418 27.2064 33.5449 25.9857 33.5449 24.7825C33.5449 23.5794 33.1418 22.3587 32.3126 21.4401C31.5654 20.6125 30.4944 20.0556 29.1312 19.9674V19.5947C29.1562 18.2282 28.8745 16.8735 28.3066 15.6304C27.7381 14.3857 26.8973 13.2847 25.8463 12.4085L25.8464 12.4085L25.8406 12.4038C24.1347 11.0239 21.8871 10.3039 19.7014 10.3791Z" fill="white" stroke="#07172D"/>
</g>
</svg>
