<svg width="40" height="40" viewBox="0 0 40 40" fill="none" xmlns="http://www.w3.org/2000/svg">
<g id="ic_golang" clip-path="url(#clip0_4501_12784)">
<path id="Vector" d="M25.0062 17.2082C24.325 17.3836 23.7625 17.4775 23.1875 17.6842C22.7312 17.8032 22.2687 17.9285 21.7375 18.0663L21.7 18.0725C21.4375 18.1477 21.4125 18.1539 21.1687 17.8721C20.875 17.5401 20.6625 17.3272 20.2562 17.1268C19.025 16.5255 17.8375 16.7008 16.7312 17.4211C15.4062 18.2792 14.725 19.5507 14.7437 21.1291C14.7625 22.6949 15.8312 23.9789 17.3187 24.1919C18.6937 24.3672 19.8062 23.9037 20.6812 22.9079C20.8125 22.745 20.9312 22.5759 21.0625 22.388C21.1125 22.3254 21.1562 22.2565 21.2062 22.1813H17.45C17.0437 22.1813 16.9437 21.9308 17.0812 21.5988C17.3312 20.9913 17.8 19.9766 18.075 19.4693C18.1312 19.3565 18.2687 19.106 18.5062 19.106H24.825C25.1062 18.2667 25.5625 17.4211 26.175 16.6194C27.5937 14.7467 29.2562 13.7696 31.625 13.3625C33.6125 13.0117 35.4812 13.2059 37.1812 14.3583C38.7187 15.4106 39.6687 16.8386 39.925 18.7114C40.2562 21.3483 39.4937 23.4904 37.6312 25.3255C36.4 26.6346 34.825 27.4551 33.0125 27.8246C32.6625 27.8873 32.3187 27.9186 31.9812 27.9499C31.8 27.9624 31.625 27.9812 31.45 28C29.6812 27.9624 28.0625 27.4551 26.7 26.2838C25.7437 25.4508 25.0812 24.4299 24.7562 23.2461C24.525 23.7033 24.2562 24.148 23.8812 24.5677C22.5312 26.4216 20.7 27.5741 18.3875 27.881C16.475 28.1378 14.7063 27.7683 13.1438 26.597C11.7063 25.5009 10.8875 24.0603 10.675 22.2627C10.4188 20.1332 11.0438 18.1665 12.325 16.5443C13.7125 14.7279 15.5437 13.5754 17.7812 13.1683C19.6125 12.78 21.3625 13.0493 22.9437 14.1266C23.975 14.8093 24.7125 15.7425 25.2 16.8762C25.3187 17.0516 25.2375 17.1518 25.0062 17.2082ZM3.01875 17.5589C2.94063 17.5589 2.92125 17.5213 2.96 17.4587L3.36938 16.9326C3.40813 16.8762 3.50563 16.8386 3.58375 16.8386H10.5375C10.6125 16.8386 10.6313 16.895 10.5938 16.9514L10.2625 17.4587C10.225 17.5213 10.125 17.5777 10.0688 17.5777L3.01875 17.5589ZM0.0778796 19.3565C4.63426e-06 19.3565 -0.0194954 19.3127 0.0195046 19.2563L0.428442 18.7302C0.467442 18.6738 0.564817 18.63 0.642504 18.63H9.525C9.6 18.63 9.6375 18.6926 9.61875 18.749L9.4625 19.2187C9.44375 19.2939 9.36875 19.3377 9.2875 19.3377L0.0778796 19.3565ZM4.7325 21.0351C4.69375 21.0915 4.71313 21.1479 4.79063 21.1479L9.0375 21.1666C9.09375 21.1666 9.175 21.1103 9.175 21.0351L9.2125 20.5654C9.2125 20.4839 9.175 20.4276 9.09375 20.4276H5.2C5.12188 20.4276 5.04438 20.4839 5.005 20.5466L4.7325 21.0351ZM36.075 19.9077C36.0625 19.7448 36.0562 19.6071 36.0312 19.4693C35.6812 17.5401 33.9062 16.444 32.0562 16.8762C30.2437 17.2833 29.075 18.4358 28.65 20.271C28.3 21.793 29.0375 23.3338 30.4375 23.9601C31.5125 24.4299 32.5812 24.3735 33.6125 23.8411C35.15 22.9893 35.9875 21.793 36.0875 20.1144C36.0812 20.0392 36.0812 19.9703 36.075 19.9077Z" fill="white"/>
</g>
<defs>
<clipPath id="clip0_4501_12784">
<rect width="40" height="40" fill="white"/>
</clipPath>
</defs>
</svg>
