<svg width="78" height="35" viewBox="0 0 78 35" fill="none" xmlns="http://www.w3.org/2000/svg">
<path fill-rule="evenodd" clip-rule="evenodd" d="M9.21474 9.39544H23.1536L23.1504 23.4334L32.3179 32.6953C32.3447 32.6495 32.3344 32.6885 32.3488 32.604L32.3539 0.124813C29.69 0.0608978 26.9456 0.122688 24.2728 0.122688C16.3689 0.122688 8.41865 0.152851 0.518325 0.122688L0.0241699 0.165211L9.21474 9.39544Z" fill="#929292"/>
<path fill-rule="evenodd" clip-rule="evenodd" d="M32.3177 32.6955L23.1502 23.4336L9.22375 23.4232L9.21452 9.39566L0.0239486 0.165428C-0.0296341 8.25326 0.0234343 16.4447 0.0234343 24.5522L0.0254924 32.5272C0.0275502 32.5397 0.0291067 32.5512 0.0311645 32.5626C0.0553836 32.6862 0.092991 32.6914 0.26664 32.6991C1.10758 32.736 3.16978 32.696 4.04212 32.696C13.4563 32.696 22.9142 32.7333 32.3177 32.6955Z" fill="#7A7A7A"/>
<path fill-rule="evenodd" clip-rule="evenodd" d="M37.0823 11.3956L40.5615 11.3977L40.5645 6.93202L44.0442 6.92949L44.0467 11.3956L47.5682 11.3977L47.5702 0.250498L44.0493 0.247841L44.0463 4.42185L40.5671 4.42384L40.564 0.250498L37.0848 0.247841L37.0823 11.3956Z" fill="#929292"/>
<path fill-rule="evenodd" clip-rule="evenodd" d="M52.6301 9.0988L52.628 2.54644C53.6451 2.52624 54.7304 2.47335 55.1586 3.08581C55.6125 3.73468 55.5719 4.74327 55.5719 5.80209C55.5719 8.84858 55.3203 9.15328 52.6301 9.0988ZM49.2318 0.250607L49.2307 11.3957C49.7456 11.4071 50.3195 11.528 50.8452 11.5234C51.1636 11.5207 51.3393 11.5659 51.6748 11.5649L53.7889 11.6064C55.021 11.6075 56.8069 11.2271 57.6968 10.3648C58.6439 9.44762 59.0541 7.90018 59.0541 6.55381V5.0505C59.0351 4.7935 59.0051 4.90618 59.0124 4.54913C59.0289 3.73256 58.6243 2.44997 58.1364 1.79844C57.2238 0.581755 55.9541 0.251141 54.4464 0.0870295L50.9296 0.123438C50.3592 0.121843 49.7759 0.237585 49.2318 0.250607Z" fill="#929292"/>
<path fill-rule="evenodd" clip-rule="evenodd" d="M60.3806 11.3956L63.901 11.3977L63.9041 6.84791L68.1299 6.84538L68.1319 4.63513L63.9066 4.6326L63.9041 2.67257C64.1272 2.66725 68.2026 2.69436 68.3638 2.65224C68.4443 2.63098 68.4422 2.60918 68.4556 2.5365C68.4654 2.48308 68.4659 2.43524 68.4668 2.38022L68.4613 0.250498L60.3826 0.247841L60.3806 11.3956Z" fill="#929292"/>
<path fill-rule="evenodd" clip-rule="evenodd" d="M69.0446 4.8415C69.0446 6.23731 68.9555 7.59564 69.4022 8.95052C69.6465 9.69228 69.8907 10.0572 70.3601 10.5321C70.9718 11.1497 72.1012 11.5266 73.0252 11.6061L74.2264 11.6902C74.4247 11.6897 74.4381 11.6534 74.6395 11.6477C74.79 11.6429 74.9482 11.6538 75.0982 11.6497C75.3852 11.6409 77.0789 11.4701 77.3561 11.3767C77.4736 11.3378 77.502 11.4046 77.5009 11.1892L77.4999 8.97803C76.5235 9.05896 74.403 9.26147 73.5677 8.92966C73.3668 8.8498 73.1663 8.66815 73.0406 8.49992C72.7768 8.14897 72.6094 7.41864 72.6094 7.01281C72.6094 6.14748 72.528 4.53214 72.75 3.77218C72.8191 3.53658 72.9608 3.2344 73.0963 3.07667C73.2514 2.89595 73.4379 2.77197 73.7012 2.68373C74.4524 2.43497 75.0811 2.59018 75.635 2.58659C76.3627 2.58301 76.9738 2.67589 77.4988 2.66805L77.4999 0.291824L76.0467 0.0846605C75.4898 0.0373535 75.0441 1.43051e-05 74.434 1.43051e-05C72.4959 1.43051e-05 70.5632 0.226847 69.666 2.04363C69.479 2.42208 69.3208 2.84306 69.2281 3.3144C69.1765 3.57591 69.1539 3.77006 69.1199 4.04047C69.0988 4.20817 69.0446 4.67433 69.0446 4.8415Z" fill="#929292"/>
<path fill-rule="evenodd" clip-rule="evenodd" d="M58.2635 21.4601C57.8858 21.4675 57.1999 21.3953 56.913 21.5194C56.2518 21.8054 56.3538 22.6136 56.3611 23.2557L58.2222 23.2583L58.2243 28.5201C57.4704 29.1883 54.9652 31.1933 53.9593 29.8931C53.7795 29.6605 53.6228 29.3356 53.6228 28.9375C53.6228 28.2315 53.6687 23.0708 53.5982 22.7823C53.2854 21.4991 51.2026 21.1695 50.0993 21.1706C49.63 21.1706 49.2697 21.4841 49.2703 21.9636V29.9398C49.2703 30.9131 49.7444 32.1957 50.7202 32.6977C52.5516 33.6388 55.5809 32.2165 57.0557 31.2262C57.4772 30.9433 58.1759 30.3608 58.3037 30.2788C58.332 31.0247 58.263 33.8335 58.3711 34.3447C58.534 35.1145 59.2436 34.993 59.8413 34.993C60.1457 34.9925 60.6466 34.87 60.8837 34.7901C61.7803 34.4885 62.6196 33.7794 62.6187 32.6547C62.6161 29.5941 62.58 26.2471 62.6207 23.2189C63.291 23.2048 63.98 23.2126 64.6509 23.2167C65.024 23.2194 65.2394 23.1622 65.464 22.9915C65.9154 22.6479 65.816 22.0301 65.8087 21.3808L62.6212 21.3787C62.4801 19.9366 62.5228 17.8573 63.9868 17.1191C65.1683 16.5227 65.9468 17.0412 66.2926 16.9385C66.8351 16.7765 66.5704 14.6536 63.1999 14.6545C61.9271 14.655 60.542 14.9645 59.6856 15.8349C59.309 16.2164 58.9504 16.6535 58.7277 17.2079C58.0749 18.83 58.3052 19.7566 58.2635 21.4601Z" fill="#7A7A7A"/>
<path fill-rule="evenodd" clip-rule="evenodd" d="M64.9409 27.5597C64.9404 30.3772 66.1281 31.7995 68.8741 32.6175C69.8397 32.9051 71.5355 33.0504 72.5274 32.9881C73.9239 32.9004 75.1022 32.6616 76.2916 31.8945C76.729 31.6121 77.1144 31.2976 77.4509 30.9321C77.6009 30.7691 77.7797 30.533 77.8756 30.3165C78.0142 30.005 78.0672 29.761 77.8745 29.4828C77.5009 29.4751 77.3664 29.6951 76.7836 29.9682C75.0914 30.7587 73.2163 31.4434 71.3608 30.8225C70.963 30.6896 70.6002 30.4799 70.3396 30.2225C68.8577 28.7576 69.1678 25.4891 71.0681 24.3357C71.9179 23.8192 73.6837 23.6915 74.0537 24.8942C74.3432 25.8337 73.6528 26.5724 72.9597 26.9928C72.2579 27.42 71.1635 27.6722 70.2906 27.6863C70.3895 28.0746 70.8512 28.5542 71.1872 28.7426C71.4016 28.863 71.6541 28.9591 71.9039 29.0223C72.9927 29.2995 74.0047 29.1132 75.0306 28.7448C76.6682 28.1555 77.8734 26.8563 77.875 24.9699C77.875 24.6648 77.7467 24.0179 77.6514 23.7756C77.5091 23.4153 77.3499 23.1428 77.1351 22.8761C75.7088 21.1002 72.4193 21.3027 70.4096 21.7091C68.9524 22.0034 67.0948 23.0084 66.3327 23.992C65.7061 24.8008 65.3907 25.188 65.1146 26.3144C65.0409 26.617 64.9414 27.2181 64.9409 27.5597Z" fill="#7A7A7A"/>
<path fill-rule="evenodd" clip-rule="evenodd" d="M37.0823 17.2025L37.0818 31.8192C37.0823 32.4504 37.7449 32.9046 38.1598 32.9046C41.4993 32.9046 45.0418 32.941 48.3551 32.9026C48.3793 31.4507 48.6312 30.1068 46.9901 30.1068H41.9326C41.6636 30.1265 41.8141 30.1545 41.4379 30.1463L41.4354 28.3528C41.4354 28.1493 41.475 28.1161 41.4781 27.895C41.5111 25.4625 41.4446 22.8947 41.475 20.4581C41.4776 20.2547 41.5179 20.1634 41.5179 19.9588V18.372C41.5179 16.8885 39.2516 16.3663 38.0768 16.3663C37.4795 16.3663 37.0823 16.6066 37.0823 17.2025Z" fill="#7A7A7A"/>
<path fill-rule="evenodd" clip-rule="evenodd" d="M48.98 17.8293C48.98 18.6402 49.064 19.1358 49.8436 19.7152C50.2893 20.0458 51.0617 20.3032 51.5785 20.2414C52.8079 20.0962 53.9973 19.5225 53.9967 18.08C53.9957 17.1026 53.4217 16.4356 52.5694 16.092C52.1959 15.9414 52.0572 15.9477 51.6074 15.8891C51.0179 15.8117 50.2248 16.1241 49.8677 16.3847C49.4597 16.6826 48.9795 17.2599 48.98 17.8293Z" fill="#7A7A7A"/>
</svg>
