<svg width="40" height="40" viewBox="0 0 40 40" fill="none" xmlns="http://www.w3.org/2000/svg">
<g id="ic_java">
<path id="Vector" d="M22.0312 3.75C23.7838 7.88625 15.7475 10.42 15 13.8675C14.3162 17.0312 19.7612 20.7425 19.7662 20.7425C18.935 19.4338 18.33 18.33 17.5 16.2887C16.0938 12.8413 26.0688 9.73125 22.0312 3.75ZM27.3438 9.4925C27.3438 9.4925 20.3175 9.93625 19.9613 14.5312C19.7987 16.5775 21.8162 17.6512 21.875 19.1412C21.925 20.3562 20.6637 21.3663 20.6637 21.3663C20.6637 21.3663 22.925 20.9575 23.6325 19.1012C24.4137 17.0413 22.11 15.635 22.3438 13.9838C22.5688 12.4075 27.3438 9.4925 27.3438 9.4925ZM29.0625 20.0775C28.325 20.0438 27.495 20.3175 26.7575 20.8587C28.2125 20.5375 29.4538 21.45 29.4538 22.5C29.4538 24.8538 26.0938 27.07 26.0938 27.07C26.0938 27.07 31.2887 26.4888 31.2887 22.6175C31.2887 21.02 30.2887 20.1362 29.0625 20.0775ZM15.2737 20.1175C13.4612 20.18 9.84375 20.4788 9.84375 21.875C9.84375 23.8188 18.2712 23.97 24.2975 22.7738C24.2975 22.7738 25.9375 21.6313 26.3675 21.2113C22.4175 22.0312 13.3987 22.1588 13.3987 21.445C13.3987 20.7913 16.2887 20.1175 16.2887 20.1175C16.2887 20.1175 15.8787 20.0975 15.2737 20.1175ZM14.7263 23.7113C13.735 23.7113 12.265 24.4825 12.265 25.2337C12.265 26.7475 19.7275 27.91 25.235 25.7025L23.32 24.5312C19.585 25.7525 12.685 25.3463 14.7263 23.7113ZM15.6637 27.1087C14.3113 27.1087 13.4375 27.9638 13.4375 28.5938C13.4375 30.5312 21.5188 30.7225 24.7262 28.75L22.695 27.4212C20.3025 28.4525 14.2825 28.6038 15.6637 27.1087ZM11.1325 28.8675C8.92625 28.8237 7.5 29.8238 7.5 30.6625C7.5 35.13 30.1175 34.9163 30.1175 30.35C30.1175 29.5938 29.2237 29.2325 28.9062 29.0613C30.7525 33.4263 10.43 33.085 10.43 30.5063C10.43 29.9213 11.9338 29.335 13.32 29.6087L12.1487 28.9438C11.8122 28.8948 11.4726 28.8689 11.1325 28.8663V28.8675ZM32.5 31.875C29.0625 35.2 20.3625 36.3913 11.6013 34.3363C20.3612 37.9987 32.4562 35.9613 32.5 31.875Z" fill="white"/>
</g>
</svg>
