<svg width="36" height="36" viewBox="0 0 20 32" fill="none" xmlns="http://www.w3.org/2000/svg">
<path id="Vector" d="M8.53846 17.3481L13.5799 12.3546C13.7653 12.171 13.9897 12.0767 14.253 12.0718C14.5163 12.0669 14.7456 12.1612 14.9408 12.3546C15.1361 12.548 15.2337 12.7727 15.2337 13.0286C15.2337 13.2845 15.1361 13.5092 14.9408 13.7026L9.38165 19.2088C9.14047 19.4465 8.85911 19.5653 8.53757 19.5653C8.216 19.5653 7.93523 19.4465 7.69526 19.2088L5.44379 16.9788C5.25838 16.7951 5.16321 16.5729 5.15829 16.3121C5.15337 16.0513 5.24853 15.8242 5.44379 15.6308C5.63905 15.4374 5.86587 15.3407 6.12425 15.3407C6.38261 15.3407 6.60943 15.4374 6.80472 15.6308L8.53846 17.3481ZM2.40632 32C1.74508 32 1.17872 31.7665 0.707233 31.2995C0.235744 30.8325 0 30.2716 0 29.6166V2.3834C0 1.72846 0.235744 1.1675 0.707233 0.700498C1.17872 0.233499 1.74508 0 2.40632 0H17.5937C18.2549 0 18.8213 0.233499 19.2928 0.700498C19.7643 1.1675 20 1.72846 20 2.3834V29.6166C20 30.2716 19.7643 30.8325 19.2928 31.2995C18.8213 31.7665 18.2549 32 17.5937 32H2.40632ZM1.93289 28.3663V29.6166C1.93289 29.7339 1.98221 29.8413 2.08085 29.939C2.17947 30.0367 2.28796 30.0856 2.40632 30.0856H17.5937C17.712 30.0856 17.8205 30.0367 17.9191 29.939C18.0178 29.8413 18.0671 29.7339 18.0671 29.6166V28.3663H1.93289ZM1.93289 26.4519H18.0671V5.54817H1.93289V26.4519ZM1.93289 3.63369H18.0671V2.3834C18.0671 2.26617 18.0178 2.15871 17.9191 2.06104C17.8205 1.96334 17.712 1.91448 17.5937 1.91448H2.40632C2.28796 1.91448 2.17947 1.96334 2.08085 2.06104C1.98221 2.15871 1.93289 2.26617 1.93289 2.3834V3.63369Z" fill="white"/>
</svg>
