<svg width="40" height="40" viewBox="0 0 40 40" fill="none" xmlns="http://www.w3.org/2000/svg">
<g id="ic_nodejs">
<path id="Vector" fill-rule="evenodd" clip-rule="evenodd" d="M36 12.1075L20 3L4 12.1075V27.8925L6.47631 29.302L11.5397 27.3042C12.2211 27.0351 12.8046 26.5737 13.2155 25.9791C13.6264 25.3845 13.846 24.6838 13.8462 23.9667V11.596H16.3077V23.9667C16.3075 25.162 15.9415 26.3301 15.2565 27.3213C14.5715 28.3125 13.5987 29.0816 12.4628 29.5301L9.16431 30.8315L20 37L36 27.8949V12.1075ZM18.7692 16.3983C18.7692 15.1247 19.2879 13.9032 20.2112 13.0026C21.1344 12.102 22.3866 11.596 23.6923 11.596H26.5649C29.056 11.596 31.0769 13.565 31.0769 15.9973V16.3983H28.6154V15.9973C28.6154 15.7347 28.5623 15.4746 28.4593 15.2319C28.3563 14.9892 28.2052 14.7687 28.0148 14.583C27.8244 14.3973 27.5984 14.2499 27.3496 14.1494C27.1008 14.0489 26.8342 13.9972 26.5649 13.9972H23.6923C23.0395 13.9972 22.4134 14.2502 21.9517 14.7004C21.4901 15.1507 21.2308 15.7615 21.2308 16.3983C21.2308 17.0351 21.4901 17.6459 21.9517 18.0962C22.4134 18.5465 23.0395 18.7994 23.6923 18.7994H26.1538C27.4595 18.7994 28.7117 19.3054 29.635 20.206C30.5582 21.1066 31.0769 22.3281 31.0769 23.6017C31.0769 24.8753 30.5582 26.0968 29.635 26.9974C28.7117 27.898 27.4595 28.404 26.1538 28.404H23.6923C22.3866 28.404 21.1344 27.898 20.2112 26.9974C19.2879 26.0968 18.7692 24.8753 18.7692 23.6017H21.2308C21.2308 24.2385 21.4901 24.8493 21.9517 25.2995C22.4134 25.7498 23.0395 26.0028 23.6923 26.0028H26.1538C26.8067 26.0028 27.4328 25.7498 27.8944 25.2995C28.356 24.8493 28.6154 24.2385 28.6154 23.6017C28.6154 22.9649 28.356 22.3541 27.8944 21.9038C27.4328 21.4535 26.8067 21.2006 26.1538 21.2006H23.6923C22.3866 21.2006 21.1344 20.6946 20.2112 19.794C19.2879 18.8934 18.7692 17.6719 18.7692 16.3983Z" fill="white"/>
</g>
</svg>
