<svg width="40" height="40" viewBox="0 0 40 40" fill="none" xmlns="http://www.w3.org/2000/svg">
<g id="ic_react">
<path id="Vector" d="M20 22.5C19.337 22.5 18.7011 22.2366 18.2322 21.7677C17.7634 21.2989 17.5 20.663 17.5 20C17.5 19.3369 17.7634 18.701 18.2322 18.2322C18.7011 17.7634 19.337 17.5 20 17.5C20.663 17.5 21.2989 17.7634 21.7678 18.2322C22.2366 18.701 22.5 19.3369 22.5 20C22.5 20.663 22.2366 21.2989 21.7678 21.7677C21.2989 22.2366 20.663 22.5 20 22.5ZM19.12 27.49C19.4117 27.84 19.705 28.18 20 28.505C20.295 28.18 20.5883 27.8416 20.88 27.49C20.2934 27.5024 19.7066 27.5024 19.12 27.49ZM15.795 27.2816C14.5151 27.1484 13.2437 26.9437 11.9867 26.6683C11.8617 27.2516 11.7667 27.8183 11.7033 28.3616C11.3867 31 11.8283 32.6033 12.5 32.99C13.1717 33.3783 14.78 32.9583 16.9083 31.3666C17.3467 31.0383 17.7883 30.6733 18.2317 30.275C17.3642 29.3235 16.5507 28.3241 15.795 27.2816ZM28.0133 26.6683C26.7567 26.9455 25.4851 27.1502 24.205 27.2816C23.4493 28.3241 22.6358 29.3235 21.7683 30.275C22.2117 30.675 22.6533 31.0383 23.0917 31.3666C25.22 32.9583 26.8283 33.3783 27.5 32.99C28.1717 32.6033 28.6117 31 28.2983 28.3616C28.2295 27.7932 28.135 27.2282 28.015 26.6683H28.0133ZM30.43 26.0233C31.3917 30.4216 30.8867 33.9233 28.75 35.1566C26.6133 36.39 23.3283 35.0766 20 32.045C16.6717 35.0766 13.3867 36.3883 11.25 35.155C9.11333 33.9216 8.60833 30.4216 9.56833 26.0216C5.27833 24.6566 2.5 22.4666 2.5 20C2.5 17.5333 5.27833 15.345 9.56833 13.9766C8.60833 9.5783 9.11333 6.07663 11.25 4.8433C13.3867 3.60997 16.6717 4.9233 20 7.95497C23.3283 4.9233 26.6133 3.61163 28.75 4.84497C30.8867 6.0783 31.3917 9.5783 30.4317 13.9783C34.7217 15.3433 37.5 17.5333 37.5 20C37.5 22.4666 34.7217 24.655 30.4317 26.0233H30.43ZM18.23 9.72497C17.8062 9.34131 17.3651 8.97705 16.9083 8.6333C14.78 7.04163 13.1717 6.62163 12.5 7.00997C11.8283 7.39663 11.3883 8.99997 11.7017 11.6383C11.7683 12.1833 11.8617 12.7483 11.985 13.3316C13.2425 13.0562 14.5145 12.8514 15.795 12.7183C16.5867 11.63 17.4033 10.6283 18.2317 9.72497H18.23ZM24.205 12.7183C25.5417 12.8583 26.8183 13.0666 28.0133 13.3316C28.1383 12.7483 28.2333 12.1816 28.2967 11.6383C28.6133 8.99997 28.1717 7.39663 27.5 7.00997C26.8283 6.62163 25.22 7.04163 23.0917 8.6333C22.6343 8.97701 22.1927 9.34127 21.7683 9.72497C22.5967 10.6283 23.4133 11.63 24.205 12.7183ZM20.88 12.51C20.5883 12.16 20.295 11.82 20 11.495C19.705 11.82 19.4117 12.1583 19.12 12.51C19.7066 12.4975 20.2934 12.4975 20.88 12.51ZM13.9533 24.5066C13.6493 24.0051 13.3559 23.4972 13.0733 22.9833C12.915 23.4116 12.7683 23.8333 12.635 24.2516C13.0633 24.345 13.5033 24.43 13.9517 24.5066H13.9533ZM17.1733 24.8966C19.0552 25.0364 20.9448 25.0364 22.8267 24.8966C23.8887 23.3366 24.8335 21.6998 25.6533 20C24.8335 18.3001 23.8887 16.6634 22.8267 15.1033C20.9448 14.9635 19.0552 14.9635 17.1733 15.1033C16.1113 16.6634 15.1665 18.3001 14.3467 20C15.1665 21.6998 16.1113 23.3366 17.1733 24.8966ZM26.9267 17.0166C27.085 16.5883 27.2317 16.1666 27.365 15.7483C26.9281 15.6535 26.4891 15.5685 26.0483 15.4933C26.3518 15.9948 26.6447 16.5027 26.9267 17.0166ZM10.2167 16.395C9.65 16.5783 9.11333 16.7783 8.61 16.995C6.16833 18.0416 5 19.225 5 20C5 20.775 6.16667 21.9583 8.61 23.005C9.11333 23.2216 9.65 23.4216 10.2167 23.605C10.5867 22.4383 11.045 21.2283 11.5917 20C11.0664 18.8249 10.6073 17.6214 10.2167 16.395ZM12.6333 15.7483C12.7683 16.165 12.915 16.5883 13.0733 17.015C13.3559 16.5016 13.6493 15.9942 13.9533 15.4933C13.5033 15.57 13.0633 15.655 12.635 15.7483H12.6333ZM29.7833 23.605C30.35 23.4216 30.8867 23.2216 31.39 23.005C33.8317 21.9583 35 20.775 35 20C35 19.225 33.8333 18.0416 31.39 16.995C30.8638 16.7708 30.3277 16.5706 29.7833 16.395C29.4133 17.5616 28.955 18.7716 28.4083 20C28.955 21.2283 29.4133 22.4366 29.7833 23.605ZM27.3667 24.2516C27.2289 23.8264 27.0822 23.4041 26.9267 22.985C26.6441 23.4984 26.3507 24.0057 26.0467 24.5066C26.4967 24.43 26.9367 24.345 27.365 24.2516H27.3667Z" fill="white"/>
</g>
</svg>
