<svg width="36" height="35" viewBox="0 0 36 35" fill="none" xmlns="http://www.w3.org/2000/svg">
<path d="M8.39844 0.751953V15H5.58594V3.99414L2.20703 5.06836V2.85156L8.0957 0.751953H8.39844ZM22.5977 6.64062V9.10156C22.5977 10.1693 22.4837 11.0905 22.2559 11.8652C22.028 12.6335 21.6992 13.265 21.2695 13.7598C20.8464 14.248 20.3418 14.6094 19.7559 14.8438C19.1699 15.0781 18.5189 15.1953 17.8027 15.1953C17.2298 15.1953 16.696 15.1237 16.2012 14.9805C15.7064 14.8307 15.2604 14.5996 14.8633 14.2871C14.4727 13.9746 14.1341 13.5807 13.8477 13.1055C13.5677 12.6237 13.3529 12.0508 13.2031 11.3867C13.0534 10.7227 12.9785 9.96094 12.9785 9.10156V6.64062C12.9785 5.57292 13.0924 4.6582 13.3203 3.89648C13.5547 3.12826 13.8835 2.5 14.3066 2.01172C14.7363 1.52344 15.2441 1.16536 15.8301 0.9375C16.416 0.703125 17.0671 0.585938 17.7832 0.585938C18.3561 0.585938 18.8867 0.660807 19.375 0.810547C19.8698 0.953776 20.3158 1.17839 20.7129 1.48438C21.11 1.79036 21.4486 2.18424 21.7285 2.66602C22.0085 3.14128 22.2233 3.71094 22.373 4.375C22.5228 5.03255 22.5977 5.78776 22.5977 6.64062ZM19.7754 9.47266V6.25977C19.7754 5.74544 19.7461 5.29622 19.6875 4.91211C19.6354 4.52799 19.554 4.20247 19.4434 3.93555C19.3327 3.66211 19.196 3.44076 19.0332 3.27148C18.8704 3.10221 18.6849 2.97852 18.4766 2.90039C18.2682 2.82227 18.0371 2.7832 17.7832 2.7832C17.4642 2.7832 17.181 2.84505 16.9336 2.96875C16.6927 3.09245 16.4876 3.29102 16.3184 3.56445C16.1491 3.83138 16.0189 4.18945 15.9277 4.63867C15.8431 5.08138 15.8008 5.62174 15.8008 6.25977V9.47266C15.8008 9.98698 15.8268 10.4395 15.8789 10.8301C15.9375 11.2207 16.0221 11.556 16.1328 11.8359C16.25 12.1094 16.3867 12.334 16.543 12.5098C16.7057 12.679 16.8913 12.8027 17.0996 12.8809C17.3145 12.959 17.5488 12.998 17.8027 12.998C18.1152 12.998 18.3919 12.9362 18.6328 12.8125C18.8802 12.6823 19.0885 12.4805 19.2578 12.207C19.4336 11.9271 19.5638 11.5625 19.6484 11.1133C19.7331 10.6641 19.7754 10.1172 19.7754 9.47266ZM33.8281 7.08008V9.53125H24.082V7.08008H33.8281ZM30.293 3.22266V13.5742H27.627V3.22266H30.293ZM1.58594 27.2266V34H0.132812V25.5469H1.50781L1.58594 27.2266ZM1.28906 29.4531L0.617188 29.4297C0.622396 28.8516 0.697917 28.3177 0.84375 27.8281C0.989583 27.3333 1.20573 26.9036 1.49219 26.5391C1.77865 26.1745 2.13542 25.8932 2.5625 25.6953C2.98958 25.4922 3.48438 25.3906 4.04688 25.3906C4.44271 25.3906 4.80729 25.4479 5.14062 25.5625C5.47396 25.6719 5.76302 25.8464 6.00781 26.0859C6.2526 26.3255 6.44271 26.6328 6.57812 27.0078C6.71354 27.3828 6.78125 27.8359 6.78125 28.3672V34H5.33594V28.4375C5.33594 27.9948 5.26042 27.6406 5.10938 27.375C4.96354 27.1094 4.75521 26.9167 4.48438 26.7969C4.21354 26.6719 3.89583 26.6094 3.53125 26.6094C3.10417 26.6094 2.7474 26.6849 2.46094 26.8359C2.17448 26.987 1.94531 27.1953 1.77344 27.4609C1.60156 27.7266 1.47656 28.0312 1.39844 28.375C1.32552 28.7135 1.28906 29.0729 1.28906 29.4531ZM6.76562 28.6562L5.79688 28.9531C5.80208 28.4896 5.8776 28.0443 6.02344 27.6172C6.17448 27.1901 6.39062 26.8099 6.67188 26.4766C6.95833 26.1432 7.3099 25.8802 7.72656 25.6875C8.14323 25.4896 8.61979 25.3906 9.15625 25.3906C9.60938 25.3906 10.0104 25.4505 10.3594 25.5703C10.7135 25.6901 11.0104 25.875 11.25 26.125C11.4948 26.3698 11.6797 26.6849 11.8047 27.0703C11.9297 27.4557 11.9922 27.9141 11.9922 28.4453V34H10.5391V28.4297C10.5391 27.9557 10.4635 27.5885 10.3125 27.3281C10.1667 27.0625 9.95833 26.8776 9.6875 26.7734C9.42188 26.6641 9.10417 26.6094 8.73438 26.6094C8.41667 26.6094 8.13542 26.6641 7.89062 26.7734C7.64583 26.8828 7.4401 27.0339 7.27344 27.2266C7.10677 27.4141 6.97917 27.6302 6.89062 27.875C6.80729 28.1198 6.76562 28.3802 6.76562 28.6562ZM13.7969 29.8672V29.6875C13.7969 29.0781 13.8854 28.513 14.0625 27.9922C14.2396 27.4661 14.4948 27.0104 14.8281 26.625C15.1615 26.2344 15.5651 25.9323 16.0391 25.7188C16.513 25.5 17.0443 25.3906 17.6328 25.3906C18.2266 25.3906 18.7604 25.5 19.2344 25.7188C19.7135 25.9323 20.1198 26.2344 20.4531 26.625C20.7917 27.0104 21.0495 27.4661 21.2266 27.9922C21.4036 28.513 21.4922 29.0781 21.4922 29.6875V29.8672C21.4922 30.4766 21.4036 31.0417 21.2266 31.5625C21.0495 32.0833 20.7917 32.5391 20.4531 32.9297C20.1198 33.3151 19.7161 33.6172 19.2422 33.8359C18.7734 34.0495 18.2422 34.1562 17.6484 34.1562C17.0547 34.1562 16.5208 34.0495 16.0469 33.8359C15.5729 33.6172 15.1667 33.3151 14.8281 32.9297C14.4948 32.5391 14.2396 32.0833 14.0625 31.5625C13.8854 31.0417 13.7969 30.4766 13.7969 29.8672ZM15.2422 29.6875V29.8672C15.2422 30.2891 15.2917 30.6875 15.3906 31.0625C15.4896 31.4323 15.638 31.7604 15.8359 32.0469C16.0391 32.3333 16.2917 32.5599 16.5938 32.7266C16.8958 32.888 17.2474 32.9688 17.6484 32.9688C18.0443 32.9688 18.3906 32.888 18.6875 32.7266C18.9896 32.5599 19.2396 32.3333 19.4375 32.0469C19.6354 31.7604 19.7839 31.4323 19.8828 31.0625C19.987 30.6875 20.0391 30.2891 20.0391 29.8672V29.6875C20.0391 29.2708 19.987 28.8776 19.8828 28.5078C19.7839 28.1328 19.6328 27.8021 19.4297 27.5156C19.2318 27.224 18.9818 26.9948 18.6797 26.8281C18.3828 26.6615 18.0339 26.5781 17.6328 26.5781C17.237 26.5781 16.888 26.6615 16.5859 26.8281C16.2891 26.9948 16.0391 27.224 15.8359 27.5156C15.638 27.8021 15.4896 28.1328 15.3906 28.5078C15.2917 28.8776 15.2422 29.2708 15.2422 29.6875ZM24.75 26.875V34H23.3047V25.5469H24.7109L24.75 26.875ZM27.3906 25.5L27.3828 26.8438C27.263 26.8177 27.1484 26.8021 27.0391 26.7969C26.9349 26.7865 26.8151 26.7812 26.6797 26.7812C26.3464 26.7812 26.0521 26.8333 25.7969 26.9375C25.5417 27.0417 25.3255 27.1875 25.1484 27.375C24.9714 27.5625 24.8307 27.7865 24.7266 28.0469C24.6276 28.3021 24.5625 28.5833 24.5312 28.8906L24.125 29.125C24.125 28.6146 24.1745 28.1354 24.2734 27.6875C24.3776 27.2396 24.5365 26.8438 24.75 26.5C24.9635 26.151 25.2344 25.8802 25.5625 25.6875C25.8958 25.4896 26.2917 25.3906 26.75 25.3906C26.8542 25.3906 26.974 25.4036 27.1094 25.4297C27.2448 25.4505 27.3385 25.474 27.3906 25.5ZM32.0781 34.1562C31.4896 34.1562 30.9557 34.0573 30.4766 33.8594C30.0026 33.6562 29.5938 33.3724 29.25 33.0078C28.9115 32.6432 28.651 32.2109 28.4688 31.7109C28.2865 31.2109 28.1953 30.6641 28.1953 30.0703V29.7422C28.1953 29.0547 28.2969 28.4427 28.5 27.9062C28.7031 27.3646 28.9792 26.9062 29.3281 26.5312C29.6771 26.1562 30.0729 25.8724 30.5156 25.6797C30.9583 25.487 31.4167 25.3906 31.8906 25.3906C32.4948 25.3906 33.0156 25.4948 33.4531 25.7031C33.8958 25.9115 34.2578 26.2031 34.5391 26.5781C34.8203 26.9479 35.0286 27.3854 35.1641 27.8906C35.2995 28.3906 35.3672 28.9375 35.3672 29.5312V30.1797H29.0547V29H33.9219V28.8906C33.901 28.5156 33.8229 28.151 33.6875 27.7969C33.5573 27.4427 33.349 27.151 33.0625 26.9219C32.776 26.6927 32.3854 26.5781 31.8906 26.5781C31.5625 26.5781 31.2604 26.6484 30.9844 26.7891C30.7083 26.9245 30.4714 27.1276 30.2734 27.3984C30.0755 27.6693 29.9219 28 29.8125 28.3906C29.7031 28.7812 29.6484 29.2318 29.6484 29.7422V30.0703C29.6484 30.4714 29.7031 30.849 29.8125 31.2031C29.9271 31.5521 30.0911 31.8594 30.3047 32.125C30.5234 32.3906 30.7865 32.599 31.0938 32.75C31.4062 32.901 31.7604 32.9766 32.1562 32.9766C32.6667 32.9766 33.099 32.8724 33.4531 32.6641C33.8073 32.4557 34.1172 32.1771 34.3828 31.8281L35.2578 32.5234C35.0755 32.7995 34.8438 33.0625 34.5625 33.3125C34.2812 33.5625 33.9349 33.7656 33.5234 33.9219C33.1172 34.0781 32.6354 34.1562 32.0781 34.1562Z" fill="white"/>
</svg>
