<svg width="36" height="36" viewBox="0 0 26 30" fill="none" xmlns="http://www.w3.org/2000/svg">
<path id="Vector" d="M13 30C11.2932 30 9.71221 29.5685 8.25688 28.7055C6.80155 27.8425 5.68555 26.6314 4.90889 25.0723H1.05377C0.765269 25.0723 0.520457 24.9628 0.319334 24.7438C0.118211 24.5248 0.01765 24.2591 0.01765 23.9467C0.01765 23.622 0.119686 23.3532 0.323758 23.1404C0.52783 22.9275 0.785482 22.821 1.09671 22.821H4.01917C3.7982 21.9971 3.6835 21.1614 3.67505 20.3141C3.66664 19.4668 3.66243 18.6193 3.66243 17.7716H1.03616C0.747662 17.7716 0.50285 17.6621 0.301727 17.4431C0.100576 17.2241 0 16.9583 0 16.6459C0 16.3212 0.102036 16.0525 0.306107 15.8396C0.510179 15.6267 0.767846 15.5203 1.07911 15.5203H3.66243C3.66243 14.6366 3.66407 13.755 3.66737 12.8755C3.67066 11.996 3.80334 11.1378 4.06542 10.3008H1.05377C0.765269 10.3008 0.520457 10.1913 0.319334 9.97225C0.118211 9.75325 0.01765 9.48754 0.01765 9.17513C0.01765 8.85047 0.119686 8.5817 0.323758 8.36882C0.52783 8.15595 0.785482 8.04951 1.09671 8.04951H4.99035C5.40955 7.24008 5.93774 6.52772 6.57492 5.91242C7.21212 5.29714 7.92603 4.78888 8.71664 4.38762L6.21264 1.78477C6.01736 1.58261 5.92687 1.33853 5.94119 1.05251C5.9555 0.76653 6.0603 0.525523 6.25558 0.329491C6.45084 0.125784 6.69087 0.0239283 6.97567 0.0239283C7.26051 0.0239283 7.50055 0.125784 7.69581 0.329491L10.8043 3.56062C11.5399 3.31405 12.2813 3.19077 13.0286 3.19077C13.7759 3.19077 14.5174 3.31405 15.2529 3.56062L18.4352 0.284694C18.6364 0.0809869 18.8722 -0.0134026 19.1427 0.00152972C19.4132 0.0164621 19.6461 0.125784 19.8413 0.329491C20.0366 0.525523 20.1342 0.773996 20.1342 1.07491C20.1342 1.37586 20.0366 1.62817 19.8413 1.83185L17.3913 4.38762C18.1819 4.78888 18.8826 5.30059 19.4934 5.92277C20.1041 6.54497 20.6308 7.25388 21.0735 8.04951H24.9638C25.2523 8.04951 25.4971 8.15901 25.6983 8.37801C25.8994 8.597 26 8.86271 26 9.17513C26 9.49981 25.898 9.7686 25.6939 9.98147C25.4898 10.1943 25.2322 10.3008 24.9209 10.3008H21.9346C22.2157 11.1378 22.3502 11.996 22.3381 12.8755C22.326 13.755 22.32 14.6366 22.32 15.5203H24.9638C25.2523 15.5203 25.4971 15.6317 25.6983 15.8545C25.8994 16.0774 26 16.3412 26 16.6459C26 16.9706 25.898 17.2394 25.6939 17.4522C25.4898 17.6651 25.2322 17.7716 24.9209 17.7716H22.32C22.32 18.6193 22.3187 19.4668 22.3161 20.3141C22.3136 21.1614 22.2018 21.9971 21.9808 22.821H24.9638C25.2523 22.821 25.4971 22.9305 25.6983 23.1495C25.8994 23.3686 26 23.6343 26 23.9467C26 24.2714 25.898 24.5401 25.6939 24.753C25.4898 24.9659 25.2322 25.0723 24.9209 25.0723H21.1087C20.3438 26.6513 19.2307 27.8674 17.7695 28.7204C16.3083 29.5735 14.7185 30 13 30ZM13 27.7487C14.9747 27.7487 16.662 27.0216 18.0619 25.5674C19.4618 24.1132 20.1618 22.3562 20.1618 20.2963V12.9771C20.1618 10.9173 19.4618 9.16021 18.0619 7.70601C16.662 6.25183 14.9747 5.52474 13 5.52474C11.0253 5.52474 9.33799 6.25183 7.93806 7.70601C6.53816 9.16021 5.8382 10.9173 5.8382 12.9771V20.2963C5.8382 22.3562 6.53816 24.1132 7.93806 25.5674C9.33799 27.0216 11.0253 27.7487 13 27.7487ZM10.9078 21.4886H15.1351C15.4236 21.4886 15.6684 21.3821 15.8695 21.1692C16.0707 20.9564 16.1713 20.6876 16.1713 20.3629C16.1713 20.0382 16.0692 19.7695 15.8652 19.5566C15.6611 19.3437 15.4034 19.2373 15.0922 19.2373H10.8649C10.5764 19.2373 10.3316 19.3437 10.1305 19.5566C9.9293 19.7695 9.82873 20.0382 9.82873 20.3629C9.82873 20.6876 9.93076 20.9564 10.1348 21.1692C10.3389 21.3821 10.5966 21.4886 10.9078 21.4886ZM10.9078 14.0361H15.1351C15.4236 14.0361 15.6684 13.9297 15.8695 13.7168C16.0707 13.504 16.1713 13.2352 16.1713 12.9105C16.1713 12.5858 16.0692 12.3171 15.8652 12.1042C15.6611 11.8913 15.4034 11.7849 15.0922 11.7849H10.8649C10.5764 11.7849 10.3316 11.8913 10.1305 12.1042C9.9293 12.3171 9.82873 12.5858 9.82873 12.9105C9.82873 13.2352 9.93076 13.504 10.1348 13.7168C10.3389 13.9297 10.5966 14.0361 10.9078 14.0361Z" fill="white"/>
</svg>
