<svg width="36" height="36" viewBox="0 0 28 28" fill="none" xmlns="http://www.w3.org/2000/svg">
<path id="Vector" d="M23.6781 9.55006L18.4483 4.32782L20.931 1.85646C21.3541 1.4328 21.8692 1.22097 22.4764 1.22097C23.0836 1.22097 23.5988 1.4328 24.0218 1.85646L26.1461 3.99828C26.5692 4.42196 26.7807 4.93781 26.7807 5.54585C26.7807 6.15388 26.5692 6.66483 26.1461 7.07869L23.6781 9.55006ZM1.04598 26.9761V21.701L8.33834 14.3987L0 6.01067L5.95549 0L14.3702 8.4115L18.4483 4.32782L23.6781 9.55006L19.6147 13.6484L28 22.0746L22.021 28L13.6298 19.6503L6.31395 26.9761H1.04598ZM9.58405 13.1659L13.1245 9.62066L10.0571 6.53436L8.23839 8.37024L7.01618 7.14635L8.83485 5.3252L5.97898 2.46543L2.43858 6.01067L9.58405 13.1659ZM21.9593 25.5816L25.4997 22.0364L22.6439 19.1766L20.8252 20.9978L19.603 19.7739L21.4217 17.9527L18.3543 14.8811L14.8138 18.4264L21.9593 25.5816ZM2.77944 25.2403H5.55593L21.1866 9.5883L18.4101 6.80798L2.77944 22.46V25.2403Z" fill="white"/>
</svg>
