<svg width="36" height="36" viewBox="0 0 36 36" fill="none" xmlns="http://www.w3.org/2000/svg">
<g id="Icons- Coditas">
<path id="Vector" d="M25.5475 26.7155C25.3411 26.9156 25.0928 27.0101 24.8025 26.9991C24.5122 26.9881 24.2646 26.8797 24.0596 26.674C23.8363 26.4575 23.7247 26.2084 23.7247 25.9267C23.7247 25.645 23.8363 25.3959 24.0596 25.1795L31.4634 18.0028L24.0519 10.8187C23.8455 10.6185 23.7494 10.3732 23.7637 10.0826C23.778 9.792 23.8883 9.54665 24.0947 9.34652C24.3122 9.13577 24.5677 9.03039 24.8612 9.03039C25.1548 9.03039 25.4103 9.13577 25.6277 9.34652L33.5992 17.0905C33.8664 17.3567 34 17.6618 34 18.006C34 18.3501 33.8664 18.6518 33.5992 18.9108L25.5475 26.7155ZM10.3898 26.6378L2.40083 18.9108C2.13361 18.6518 2 18.3501 2 18.006C2 17.6618 2.13361 17.3567 2.40083 17.0905L10.4525 9.2965C10.6589 9.09637 10.9116 8.99756 11.2107 9.00005C11.5097 9.00254 11.7654 9.10668 11.9777 9.31248C12.1937 9.5218 12.3017 9.7691 12.3017 10.0544C12.3017 10.3396 12.1937 10.5869 11.9777 10.7963L4.53665 18.0092L11.9481 25.1933C12.1545 25.3934 12.2535 25.6342 12.2451 25.9155C12.2367 26.1969 12.1293 26.4376 11.9228 26.6378C11.7054 26.8485 11.4499 26.9539 11.1563 26.9539C10.8628 26.9539 10.6073 26.8485 10.3898 26.6378Z" fill="white"/>
</g>
</svg>
